<?xml version='1.0' encoding='UTF-8' standalone='no'?>
<!-- Created with Fritzing (https://fritzing.org/) -->
<svg xmlns="http://www.w3.org/2000/svg" baseProfile="tiny" height="6.53217in" version="1.2" viewBox="0 0 590.044 470.316" width="8.19506in" x="0in"  xmlns:svg="http://www.w3.org/2000/svg" y="0in">
 <g id="watermark" >
  <g >
   <g >
    <path d="M565.312,464.116c-0.604,0,-1.131,0.325,-1.422,0.809l-2.796,0l3.96,-4.071c0.146,-0.146,0.289,-0.322,0.428,-0.521c0.149,-0.222,0.228,-0.479,0.228,-0.768c0,-0.279,-0.097,-0.518,-0.287,-0.71c-0.19,-0.188,-0.444,-0.287,-0.754,-0.287l-4.636,0c-0.305,0,-0.555,0.06,-0.742,0.17c-0.219,0.13,-0.33,0.368,-0.33,0.707c0,0.329,0.111,0.562,0.33,0.692c0.188,0.111,0.438,0.168,0.742,0.168l3.148,0l-3.974,4.086c-0.146,0.147,-0.289,0.315,-0.425,0.504c-0.153,0.212,-0.23,0.472,-0.23,0.771c0,0.28,0.096,0.521,0.288,0.711c0.188,0.188,0.442,0.285,0.754,0.285l4.315,0c0.293,0.467,0.812,0.776,1.4,0.776c0.916,0,1.66,-0.744,1.66,-1.661C566.971,464.861,566.226,464.116,565.312,464.116zM565.312,466.379c-0.334,0,-0.604,-0.271,-0.604,-0.604c0,-0.333,0.27,-0.604,0.604,-0.604c0.332,0,0.604,0.271,0.604,0.604C565.915,466.11,565.644,466.379,565.312,466.379z" fill="#8C8C8C" />
    <path d="M548.369,454.074c-0.914,0,-1.659,0.745,-1.659,1.66c0,0.916,0.745,1.66,1.659,1.66s1.658,-0.744,1.658,-1.66C550.029,454.819,549.285,454.074,548.369,454.074zM548.37,456.337c-0.333,0,-0.604,-0.27,-0.604,-0.603s0.271,-0.603,0.604,-0.603c0.331,0,0.604,0.27,0.604,0.603S548.701,456.337,548.37,456.337z" fill="#8C8C8C" />
    <path d="M556.89,458.736c-0.193,-0.111,-0.439,-0.169,-0.732,-0.169l-1.465,0L554.693,456.045c0,-0.292,-0.057,-0.538,-0.166,-0.729C554.437,455.159,554.244,454.974,553.834,454.974c-0.34,0,-0.578,0.116,-0.709,0.342c-0.109,0.193,-0.167,0.438,-0.167,0.729l0,2.521l-0.481,0c-0.295,0,-0.539,0.06,-0.731,0.169c-0.228,0.129,-0.341,0.368,-0.341,0.708c0,0.412,0.185,0.603,0.341,0.692c0.192,0.111,0.438,0.168,0.731,0.168l0.481,0l0,4.362c0,0.277,0.026,0.533,0.081,0.768c0.056,0.246,0.154,0.464,0.298,0.645c0.146,0.186,0.345,0.332,0.595,0.436c0.241,0.098,0.555,0.146,0.93,0.146l0.896,0c0.292,0,0.539,-0.054,0.731,-0.166c0.154,-0.089,0.341,-0.281,0.341,-0.693c0,-0.338,-0.114,-0.578,-0.341,-0.709c-0.192,-0.109,-0.439,-0.168,-0.731,-0.168l-0.821,0c-0.138,0,-0.19,-0.019,-0.207,-0.024c-0.014,-0.034,-0.035,-0.103,-0.035,-0.231L554.695,460.304l1.465,0c0.295,0,0.541,-0.057,0.734,-0.168c0.152,-0.09,0.34,-0.28,0.34,-0.692C557.23,459.104,557.117,458.865,556.89,458.736z" fill="#8C8C8C" />
    <path d="M548.435,458.566l-1.191,0c-0.292,0,-0.538,0.059,-0.731,0.169c-0.226,0.129,-0.341,0.368,-0.341,0.708c0,0.412,0.188,0.604,0.341,0.691c0.193,0.113,0.439,0.168,0.731,0.168l0.544,0l0,5.362c0,0.293,0.057,0.539,0.167,0.73c0.131,0.227,0.367,0.341,0.708,0.341c0.411,0,0.604,-0.187,0.692,-0.341c0.111,-0.191,0.168,-0.438,0.168,-0.73L549.523,459.654c0,-0.386,-0.084,-0.656,-0.256,-0.83C549.092,458.652,548.822,458.566,548.435,458.566z" fill="#8C8C8C" />
    <path d="M544.6,458.736c-0.193,-0.111,-0.44,-0.169,-0.732,-0.169l-0.604,0c-0.25,0,-0.498,0.063,-0.734,0.187c-0.226,0.119,-0.433,0.271,-0.616,0.453l-0.644,0.604l0,-0.247c0,-0.291,-0.055,-0.538,-0.168,-0.729c-0.128,-0.228,-0.368,-0.34,-0.707,-0.34c-0.41,0,-0.604,0.184,-0.693,0.34c-0.11,0.191,-0.167,0.438,-0.167,0.729l0,4.801c-0.475,0.293,-0.791,0.816,-0.791,1.412c0,0.917,0.745,1.661,1.658,1.661c0.916,0,1.66,-0.744,1.66,-1.661c0,-0.596,-0.317,-1.119,-0.792,-1.412l0,-2.21l1.738,-1.564c0.1,-0.09,0.199,-0.164,0.297,-0.217c0.084,-0.045,0.174,-0.067,0.274,-0.067l0.288,0c0.292,0,0.539,-0.056,0.732,-0.169c0.155,-0.088,0.339,-0.279,0.339,-0.691C544.94,459.104,544.825,458.865,544.6,458.736zM540.401,466.379c-0.332,0,-0.603,-0.271,-0.603,-0.604c0,-0.333,0.271,-0.604,0.603,-0.604c0.333,0,0.604,0.271,0.604,0.604C541.005,466.11,540.734,466.379,540.401,466.379z" fill="#8C8C8C" />
    <path d="M537.884,455.217c-0.193,-0.111,-0.44,-0.167,-0.731,-0.167l-0.59,0c-0.2,0,-0.389,0.004,-0.562,0.016c-0.176,0.009,-0.345,0.035,-0.506,0.07c-0.168,0.041,-0.336,0.109,-0.496,0.202c-0.158,0.093,-0.319,0.222,-0.48,0.382c-0.334,0.314,-0.554,0.656,-0.652,1.017c-0.094,0.348,-0.143,0.735,-0.143,1.151l0,0.678l-0.483,0c-0.292,0,-0.539,0.059,-0.73,0.169c-0.227,0.13,-0.342,0.369,-0.342,0.708c0,0.412,0.185,0.604,0.341,0.693c0.191,0.111,0.438,0.166,0.73,0.166l0.483,0l0,5.362c0,0.293,0.057,0.539,0.167,0.73c0.13,0.227,0.367,0.341,0.708,0.341c0.411,0,0.603,-0.187,0.692,-0.341c0.111,-0.191,0.168,-0.438,0.168,-0.73l0,-5.36l0.92,0c0.293,0,0.54,-0.057,0.732,-0.168c0.155,-0.09,0.34,-0.28,0.34,-0.692c0,-0.34,-0.114,-0.579,-0.34,-0.708c-0.189,-0.111,-0.436,-0.17,-0.729,-0.17l-0.92,0l0,-0.678c0,-0.218,0.019,-0.41,0.056,-0.571c0.032,-0.141,0.103,-0.261,0.218,-0.367l0.002,-0.004l0.002,-0.002c0.082,-0.082,0.176,-0.126,0.29,-0.136c0.15,-0.015,0.339,-0.022,0.564,-0.022l0.56,0c0.291,0,0.539,-0.058,0.731,-0.168c0.154,-0.088,0.339,-0.281,0.339,-0.693C538.224,455.586,538.109,455.347,537.884,455.217z" fill="#8C8C8C" />
    <path d="M589.877,458.834c-0.089,-0.156,-0.282,-0.34,-0.693,-0.34c-0.339,0,-0.578,0.113,-0.707,0.34c-0.078,0.133,-0.127,0.293,-0.152,0.477l-0.021,-0.021c-0.216,-0.236,-0.466,-0.42,-0.747,-0.539c-0.277,-0.119,-0.563,-0.183,-0.849,-0.183l-0.709,0c-0.249,0,-0.466,0.015,-0.64,0.041c-0.182,0.026,-0.352,0.074,-0.51,0.14c-0.158,0.066,-0.313,0.15,-0.459,0.254c-0.139,0.097,-0.303,0.226,-0.486,0.377c-0.188,0.156,-0.342,0.302,-0.463,0.434c-0.127,0.141,-0.23,0.293,-0.306,0.455c-0.069,0.16,-0.122,0.337,-0.147,0.523c-0.026,0.178,-0.041,0.391,-0.041,0.631l0,2.386c0,0.24,0.015,0.451,0.041,0.631c0.025,0.188,0.078,0.361,0.147,0.521c0.074,0.164,0.179,0.318,0.306,0.457c0.119,0.129,0.274,0.274,0.463,0.433c0.186,0.153,0.35,0.28,0.486,0.379c0.146,0.103,0.299,0.188,0.459,0.254c0.158,0.065,0.329,0.112,0.51,0.14c0.174,0.026,0.389,0.039,0.64,0.039l0.709,0c0.298,0,0.591,-0.066,0.87,-0.199c0.244,-0.114,0.492,-0.291,0.73,-0.523l0,1.434c0,0.18,-0.025,0.334,-0.072,0.465c-0.043,0.119,-0.159,0.258,-0.344,0.406c-0.154,0.127,-0.309,0.217,-0.457,0.264c-0.15,0.049,-0.341,0.074,-0.563,0.074l-2.203,0c-0.293,0,-0.538,0.055,-0.732,0.166c-0.152,0.088,-0.34,0.282,-0.34,0.692c0,0.341,0.115,0.579,0.34,0.71c0.194,0.109,0.439,0.167,0.732,0.167l2.326,0c0.247,0,0.463,-0.015,0.638,-0.041c0.179,-0.026,0.351,-0.073,0.513,-0.14c0.153,-0.064,0.31,-0.15,0.455,-0.254c0.143,-0.101,0.305,-0.227,0.487,-0.379c0.185,-0.153,0.343,-0.299,0.463,-0.431c0.128,-0.141,0.229,-0.294,0.304,-0.456c0.071,-0.162,0.123,-0.338,0.148,-0.523c0.025,-0.182,0.041,-0.393,0.041,-0.631l0,-7.898C590.044,459.272,589.99,459.025,589.877,458.834zM588.308,463.294c0,0.188,-0.062,0.35,-0.188,0.49c-0.15,0.172,-0.394,0.403,-0.716,0.686l-0.002,0.003l-0.002,0.004c-0.139,0.13,-0.291,0.237,-0.453,0.325c-0.148,0.082,-0.325,0.121,-0.526,0.121L586.12,464.923c-0.222,0,-0.41,-0.021,-0.563,-0.072c-0.148,-0.049,-0.301,-0.137,-0.453,-0.264c-0.231,-0.186,-0.315,-0.322,-0.346,-0.404c-0.049,-0.131,-0.072,-0.285,-0.072,-0.465l0,-2.206c0,-0.18,0.023,-0.336,0.072,-0.467c0.029,-0.082,0.113,-0.217,0.346,-0.403c0.152,-0.127,0.305,-0.216,0.453,-0.265c0.153,-0.049,0.342,-0.072,0.563,-0.072l0.301,0c0.212,0,0.388,0.037,0.526,0.113c0.152,0.082,0.308,0.191,0.457,0.324c0.322,0.293,0.564,0.529,0.716,0.7c0.128,0.146,0.188,0.304,0.188,0.492L588.308,463.294z" fill="#8C8C8C" />
    <path d="M569.898,454.074c-0.914,0,-1.66,0.745,-1.66,1.66c0,0.916,0.746,1.66,1.66,1.66s1.66,-0.744,1.66,-1.66C571.558,454.819,570.812,454.074,569.898,454.074zM569.898,456.337c-0.332,0,-0.604,-0.27,-0.604,-0.603s0.271,-0.603,0.604,-0.603s0.604,0.27,0.604,0.603C570.502,456.067,570.23,456.337,569.898,456.337z" fill="#8C8C8C" />
    <path d="M580.584,464.342l-0.107,-3.419c-0.011,-0.178,-0.021,-0.338,-0.031,-0.489c-0.01,-0.162,-0.037,-0.322,-0.082,-0.476c-0.045,-0.158,-0.11,-0.309,-0.198,-0.453c-0.093,-0.146,-0.216,-0.289,-0.37,-0.42c-0.225,-0.192,-0.443,-0.334,-0.646,-0.416c-0.207,-0.084,-0.461,-0.127,-0.754,-0.127l-1.012,0c-0.259,0,-0.501,0.058,-0.716,0.164c-0.197,0.098,-0.39,0.203,-0.572,0.315l-0.003,0.002l-0.003,0.003l-0.837,0.555l0,-0.041c0,-0.291,-0.057,-0.539,-0.168,-0.733c-0.129,-0.226,-0.367,-0.339,-0.707,-0.339c-0.411,0,-0.604,0.185,-0.693,0.339c-0.109,0.194,-0.168,0.438,-0.168,0.733l0,6.099c0,0.295,0.059,0.539,0.168,0.734c0.09,0.153,0.282,0.338,0.693,0.338c0.34,0,0.578,-0.114,0.707,-0.338c0.111,-0.195,0.168,-0.439,0.168,-0.734L575.253,461.604l1.953,-1.215c0.04,-0.024,0.082,-0.048,0.121,-0.063c0.031,-0.016,0.07,-0.025,0.115,-0.031c0.049,-0.012,0.117,-0.016,0.195,-0.016l0.362,0c0.188,0,0.334,0.021,0.435,0.059c0.082,0.029,0.143,0.076,0.18,0.143c0.05,0.078,0.08,0.18,0.098,0.303c0.02,0.139,0.034,0.309,0.045,0.504l0.096,3.097c-0.457,0.297,-0.762,0.811,-0.762,1.394c0,0.917,0.746,1.661,1.66,1.661c0.916,0,1.66,-0.744,1.66,-1.661C581.41,465.167,581.077,464.629,580.584,464.342zM579.75,466.379c-0.334,0,-0.602,-0.271,-0.602,-0.604c0,-0.333,0.268,-0.604,0.602,-0.604c0.333,0,0.604,0.271,0.604,0.604C580.355,466.11,580.083,466.379,579.75,466.379z" fill="#8C8C8C" />
    <path d="M569.961,458.566l-1.193,0c-0.293,0,-0.539,0.059,-0.731,0.169c-0.226,0.129,-0.341,0.368,-0.341,0.708c0,0.412,0.186,0.604,0.341,0.691c0.192,0.113,0.438,0.168,0.731,0.168l0.545,0l0,5.362c0,0.293,0.055,0.539,0.168,0.73c0.127,0.227,0.365,0.341,0.707,0.341c0.41,0,0.604,-0.187,0.691,-0.341c0.111,-0.191,0.17,-0.438,0.17,-0.73L571.049,459.654c0,-0.386,-0.085,-0.656,-0.259,-0.83C570.618,458.652,570.345,458.566,569.961,458.566z" fill="#8C8C8C" />
   </g>
  </g>
 </g>
 <g partID="855138930">
  <g transform="translate(568.445,123.56)">
   <g id="breadboard">
    <g id="icon">
     <path d="M0.001,0l0,19.362c1.191,0,2.16,0.967,2.16,2.16c0,1.193,-0.969,2.16,-2.16,2.16l0,19.52L21.6,43.202L21.6,0L0.001,0z" fill="#1F7A34"/>
     <g transform="matrix(1, 0, 0, 1, 63.5, 326.05)">
      <g>
       <g transform="rotate(-90)">
        <g>
         <g transform="matrix(1, 0, 0, 1, 288.173, -58.9319)">
          <text fill="#FFFFFF" font-family="'OCRA'" font-size="2.75">VDD</text>
         </g>
        </g>
       </g>
      </g>
     </g>
     <g transform="matrix(1, 0, 0, 1, 263.5, 326.05)">
      <g>
       <g transform="rotate(-90)">
        <g>
         <g transform="matrix(1, 0, 0, 1, 288.173, -244.532)">
          <text fill="#FFFFFF" font-family="'OCRA'" font-size="2.75">DOUT</text>
         </g>
        </g>
       </g>
      </g>
     </g>
     <g transform="matrix(1, 0, 0, 1, 263.5, 73.95)">
      <g>
       <g transform="rotate(-90)">
        <g>
         <g transform="matrix(1, 0, 0, 1, 62.5355, -244.407)">
          <text fill="#FFFFFF" font-family="'OCRA'" font-size="2.75">VSS</text>
         </g>
        </g>
       </g>
      </g>
     </g>
     <g transform="matrix(1, 0, 0, 1, 163.5, 73.95)">
      <g>
       <g transform="rotate(-90)">
        <g>
         <g transform="matrix(1, 0, 0, 1, 62.5355, -158.807)">
          <text fill="#FFFFFF" font-family="'OCRA'" font-size="2.75">DIN</text>
         </g>
        </g>
       </g>
      </g>
     </g>
     <g>
      <g>
       <rect fill="#B3B3B3" height="1.542" width="2.834" x="13.919" y="27.551"/>
       <rect fill="#B3B3B3" height="1.542" width="2.834" x="4.847" y="27.551"/>
       <rect fill="#B3B3B3" height="1.543" width="2.834" x="13.919" y="13.8"/>
       <rect fill="#B3B3B3" height="1.543" width="2.834" x="4.847" y="13.8"/>
      </g>
      <rect fill="#E6E6E6" height="14.174" width="14.172" x="3.714" y="14.36"/>
      <circle cx="10.801" cy="21.633" fill="#CCCCCC" r="5.613"/>
      <circle cx="10.801" cy="21.633" fill="#E6E6E6" r="4.796"/>
      <g>
       <g>
        <g>
         <path d="M8.906,24.6l0,1.438c0.581,0.25,1.223,0.393,1.896,0.393c0.682,0,1.329,-0.146,1.917,-0.404L12.719,24.6L8.906,24.6z" fill="#999999"/>
         <path d="M13.718,18.581c-0.146,0,-0.645,0,-1,0c-0.354,0,-0.395,0.395,-0.395,0.395l0,1.396l0.625,0.625l2.584,0c-0.156,-1.162,-0.72,-2.184,-1.552,-2.928C13.962,18.321,13.851,18.581,13.718,18.581z" fill="#999999"/>
         <path d="M9.313,20.372l0,-1.396c0,0,-0.041,-0.395,-0.395,-0.395c-0.355,0,-0.854,0,-1,0c-0.14,0,-0.254,-0.279,-0.268,-0.539c-0.851,0.746,-1.426,1.779,-1.583,2.955l2.619,0L9.313,20.372z" fill="#999999"/>
         <path d="M13.212,22.6l0.006,1.084c0.008,0,0.061,0,0.334,0c0.418,0,0.438,0.459,0.438,0.459l0,1.049c0.883,-0.793,1.459,-1.9,1.565,-3.154c-0.399,0,-1.375,0,-1.815,0C13.177,22.038,13.212,22.6,13.212,22.6z" fill="#999999"/>
         <path d="M7.612,25.192l0,-1.049c0,0,0.021,-0.459,0.437,-0.459c0.271,0,0.326,0,0.334,0L8.389,22.6c0,0,0.033,-0.563,-0.529,-0.563c-0.44,0,-1.414,0,-1.813,0C6.152,23.292,6.728,24.399,7.612,25.192z" fill="#999999"/>
         <path d="M10.145,21.448c0,0,-0.041,0.271,-0.457,0.271c-0.418,0,-0.418,0,-0.418,0l0,1.686c0,0,-0.084,0.392,0.313,0.392c0.181,0,0.526,0,0.854,0c0,0,0.36,0,0.752,0c0.327,0,0.672,0,0.854,0c0.396,0,0.313,-0.392,0.313,-0.392l0,-1.686c0,0,0,0,-0.418,0c-0.416,0,-0.457,-0.271,-0.457,-0.271l0,-3.555l1.052,-0.721c-0.537,-0.209,-1.117,-0.334,-1.729,-0.334c-0.605,0,-1.181,0.123,-1.715,0.328l1.059,0.727l0,3.555L10.145,21.448z" fill="#999999"/>
        </g>
        <rect fill="#4F423C" height="3.105" width="2.229" x="9.796" y="21.85"/>
       </g>
       <rect fill="#4D4D4D" height="0.646" width="0.695" x="10.503" y="20.1"/>
       <rect fill="#4D4D4D" height="0.988" width="0.961" x="8.093" y="18.999"/>
       <g>
        <g>
         <g>
          <path d="M7.781,22.918c0.075,0.033,1.903,0.82,2.588,1.317l-0.06,0.082c-0.676,-0.491,-2.551,-1.299,-2.567,-1.308L7.781,22.918z" fill="#E6C47E"/>
         </g>
         <g>
          <g>
           <circle cx="7.76" cy="22.965" fill="#E6C47E" r="0.132"/>
          </g>
         </g>
         <g>
          <g>
           <circle cx="10.338" cy="24.278" fill="#E6C47E" r="0.131"/>
          </g>
         </g>
        </g>
        <g>
         <g>
          <path d="M6.938,20.702c0.115,0.059,2.806,1.441,3.101,1.645l-0.058,0.082C9.69,22.23,6.92,20.806,6.893,20.792L6.938,20.702z" fill="#E6C47E"/>
         </g>
         <g>
          <g>
           <circle cx="6.917" cy="20.747" fill="#E6C47E" r="0.132"/>
          </g>
         </g>
         <g>
          <g>
           <circle cx="10.01" cy="22.387" fill="#E6C47E" r="0.131"/>
          </g>
         </g>
        </g>
        <g>
         <g>
          <path d="M8.428,19.825c0.08,0.098,1.986,2.433,2.082,2.734l-0.096,0.031c-0.074,-0.236,-1.517,-2.031,-2.064,-2.703L8.428,19.825z" fill="#E6C47E"/>
         </g>
         <g>
          <g>
           <circle cx="8.389" cy="19.856" fill="#E6C47E" r="0.132"/>
          </g>
         </g>
         <g>
          <g>
           <circle cx="10.464" cy="22.575" fill="#E6C47E" r="0.131"/>
          </g>
         </g>
        </g>
        <g>
         <g>
          <path d="M10.587,17.78l0.098,0.02c-0.016,0.127,-1.153,1.035,-1.83,1.564l-0.063,-0.078C9.458,18.764,10.536,17.893,10.587,17.78z" fill="#E6C47E"/>
         </g>
         <g>
          <g>
           <circle cx="8.823" cy="19.325" fill="#E6C47E" r="0.131"/>
          </g>
         </g>
         <g>
          <g>
           <circle cx="10.635" cy="17.793" fill="#E6C47E" r="0.132"/>
          </g>
         </g>
        </g>
        <g>
         <g>
          <path d="M11.057,18.098c0.665,0.563,1.95,1.643,2.06,1.717l-0.056,0.082c-0.143,-0.094,-1.991,-1.656,-2.068,-1.723L11.057,18.098z" fill="#E6C47E"/>
         </g>
         <g>
          <g>
           <circle cx="11.025" cy="18.136" fill="#E6C47E" r="0.132"/>
          </g>
         </g>
         <g>
          <g>
           <circle cx="13.088" cy="19.856" fill="#E6C47E" r="0.132"/>
          </g>
         </g>
        </g>
        <g>
         <g>
          <path d="M13.409,20.198l0.075,0.064c-0.069,0.086,-1.748,2.074,-2.361,2.357l-0.041,-0.091C11.675,22.256,13.392,20.219,13.409,20.198z" fill="#E6C47E"/>
         </g>
         <g>
          <g>
           <circle cx="13.448" cy="20.231" fill="#E6C47E" r="0.131"/>
          </g>
         </g>
         <g>
          <g>
           <circle cx="11.104" cy="22.575" fill="#E6C47E" r="0.131"/>
          </g>
         </g>
        </g>
        <g>
         <g>
          <path d="M10.906,20.426c0.063,0.393,-0.085,2.08,-0.093,2.152l-0.1,-0.009c0.002,-0.018,0.156,-1.748,0.092,-2.129L10.906,20.426z" fill="#E6C47E"/>
         </g>
         <g>
          <g>
           <circle cx="10.764" cy="22.575" fill="#E6C47E" r="0.131"/>
          </g>
         </g>
         <g>
          <g>
           <circle cx="10.855" cy="20.434" fill="#E6C47E" r="0.132"/>
          </g>
         </g>
        </g>
        <g>
         <g>
          <path d="M13.634,22.482l0.096,0.029c-0.006,0.022,-0.174,0.546,-1.002,0.706c-0.793,0.154,-1.504,0.447,-1.51,0.451l-0.039,-0.095c0.008,-0.002,0.728,-0.3,1.53,-0.454C13.474,22.971,13.628,22.502,13.634,22.482z" fill="#E6C47E"/>
         </g>
         <g>
          <g>
           <circle cx="11.198" cy="23.622" fill="#E6C47E" r="0.131"/>
          </g>
         </g>
         <g>
          <g>
           <circle cx="13.682" cy="22.497" fill="#E6C47E" r="0.132"/>
          </g>
         </g>
        </g>
        <g>
         <g>
          <path d="M14.316,23.745l0.017,0.099c-0.017,0.004,-1.648,0.25,-2.771,0l0.021,-0.099C12.687,23.989,14.3,23.747,14.316,23.745z" fill="#E6C47E"/>
         </g>
         <g>
          <g>
           <circle cx="14.323" cy="23.793" fill="#E6C47E" r="0.131"/>
          </g>
         </g>
         <g>
          <g>
           <circle cx="11.573" cy="23.792" fill="#E6C47E" r="0.132"/>
          </g>
         </g>
        </g>
        <g>
         <g>
          <path d="M11.075,24.323c0.03,0.768,0.65,1.366,0.656,1.372l-0.067,0.072c-0.027,-0.024,-0.657,-0.632,-0.688,-1.44L11.075,24.323z" fill="#E6C47E"/>
         </g>
         <g>
          <g>
           <circle cx="11.698" cy="25.731" fill="#E6C47E" r="0.132"/>
          </g>
         </g>
         <g>
          <g>
           <circle cx="11.025" cy="24.325" fill="#E6C47E" r="0.132"/>
          </g>
         </g>
        </g>
       </g>
      </g>
     </g>
    </g>
    <g transform="matrix(1, 0, 0, 1, 34.035, 334.05)">
     <g>
      <rect fill="#8D8C8C" height="2.297" id="connector0pin" width="2.299" x="-31.584" y="-295.596"/>
      <rect fill="#8C8663" height="1.182" width="1.184" x="-31.022" y="-295.041"/>
      <polygon fill="#B8AF82" points="-31.584,-293.299,-31.022,-293.86,-31.022,-295.094,-31.584,-295.596"/>
      <polygon fill="#80795B" points="-29.84,-295.039,-31.014,-295.039,-31.584,-295.596,-29.285,-295.596"/>
      <polygon fill="#5E5B43" points="-29.84,-293.86,-29.84,-295.039,-29.285,-295.596,-29.285,-293.299"/>
      <polygon fill="#9A916C" points="-31.584,-293.299,-31.016,-293.86,-29.84,-293.86,-29.285,-293.299"/>
     </g>
    </g>
    <g transform="matrix(1, 0, 0, 1, 134.035, 34.05)">
     <g>
      <rect fill="#8D8C8C" height="2.297" id="connector3pin" width="2.299" x="-131.585" y="-31.598"/>
      <rect fill="#8C8663" height="1.182" width="1.186" x="-131.024" y="-31.041"/>
      <polygon fill="#B8AF82" points="-131.585,-29.301,-131.024,-29.861,-131.024,-31.096,-131.585,-31.598"/>
      <polygon fill="#80795B" points="-129.841,-31.039,-131.015,-31.039,-131.585,-31.598,-129.286,-31.598"/>
      <polygon fill="#5E5B43" points="-129.841,-29.861,-129.841,-31.039,-129.286,-31.598,-129.286,-29.301"/>
      <polygon fill="#9A916C" points="-131.585,-29.301,-131.018,-29.861,-129.841,-29.861,-129.286,-29.301"/>
     </g>
    </g>
    <g transform="matrix(1, 0, 0, 1, 234.035, 334.05)">
     <g>
      <rect fill="#8D8C8C" height="2.297" id="connector1pin" width="2.299" x="-217.184" y="-295.596"/>
      <rect fill="#8C8663" height="1.182" width="1.185" x="-216.624" y="-295.041"/>
      <polygon fill="#B8AF82" points="-217.184,-293.299,-216.624,-293.86,-216.624,-295.094,-217.184,-295.596"/>
      <polygon fill="#80795B" points="-215.442,-295.039,-216.616,-295.039,-217.184,-295.596,-214.885,-295.596"/>
      <polygon fill="#5E5B43" points="-215.442,-293.86,-215.442,-295.039,-214.885,-295.596,-214.885,-293.299"/>
      <polygon fill="#9A916C" points="-217.184,-293.299,-216.618,-293.86,-215.442,-293.86,-214.885,-293.299"/>
     </g>
    </g>
    <g transform="matrix(1, 0, 0, 1, 234.035, 34.05)">
     <g>
      <rect fill="#8D8C8C" height="2.297" id="connector2pin" width="2.299" x="-217.184" y="-31.598"/>
      <rect fill="#8C8663" height="1.182" width="1.185" x="-216.624" y="-31.041"/>
      <polygon fill="#B8AF82" points="-217.184,-29.301,-216.624,-29.861,-216.624,-31.096,-217.184,-31.598"/>
      <polygon fill="#80795B" points="-215.442,-31.039,-216.616,-31.039,-217.184,-31.598,-214.885,-31.598"/>
      <polygon fill="#5E5B43" points="-215.442,-29.861,-215.442,-31.039,-214.885,-31.598,-214.885,-29.301"/>
      <polygon fill="#9A916C" points="-217.184,-29.301,-216.618,-29.861,-215.442,-29.861,-214.885,-29.301"/>
     </g>
    </g>
   </g>
  </g>
 </g>
 <g partID="855139580">
  <g transform="translate(118.074,314.361)">
   <g id="breadboard">
    <metadata id="CorelCorpID_0Corel-Layer"/>
    <g id="pins">
     <line fill="none" gorn="0.0.7" id="connector0pin" stroke="#4B4B4D" stroke-linecap="round" stroke-width="1.44" x1="7.92002" x2="0.719872" y1="14.4002" y2="14.4002"/>
     <g transform="matrix(2.64845e-14, 1, -1, 2.64845e-14, 0.719716, 14.0502)">
      <g fill="none" gorn="0.0.9" height="0.699951" id="connector0terminal" text-anchor="start" width="0.699955"/>
     </g>
     <line fill="none" gorn="0.0.10" id="connector1pin" stroke="#4B4B4D" stroke-linecap="round" stroke-width="1.44" x1="0.719872" x2="7.92002" y1="21.5996" y2="21.5996"/>
     <g transform="matrix(-2.64845e-14, 1, 1, 2.64845e-14, 0.0201261, 21.2501)">
      <g fill="none" gorn="0.0.12" height="0.699951" id="connector1terminal" text-anchor="end" width="0.699955"/>
     </g>
     <line fill="none" gorn="0.0.1" id="connector2pin" stroke="#4B4B4D" stroke-linecap="round" stroke-width="1.44" x1="7.92002" x2="0.719872" y1="28.7997" y2="28.7997"/>
     <g fill="none" gorn="0.0.3" height="0.699951" id="connector2terminal" text-anchor="end" width="0.699955" x="0.0199174" y="28.4505"/>
     <line fill="none" gorn="0.0.4" id="connector3pin" stroke="#4B4B4D" stroke-linecap="round" stroke-width="1.44" x1="7.92002" x2="0.719872" y1="35.9998" y2="35.9998"/>
     <g fill="none" gorn="0.0.6" height="0.699951" id="connector3terminal" text-anchor="end" width="0.699955" x="0.0199174" y="35.6498"/>
    </g>
    <g id="icon">
     <path d="M7.92002,0l0,102.046,226.772,0,0,-102.047,-226.772,0zm113.029,2.08136c0.766109,0,1.38711,0.620993,1.38711,1.3871,0,0.766105,-0.620997,1.3871,-1.38711,1.3871,-0.766109,0,-1.38711,-0.620993,-1.38711,-1.3871,0,-0.766105,0.621708,-1.3871,1.38711,-1.3871zm-71.9993,0c0.766109,0,1.38711,0.620993,1.38711,1.3871,0,0.766105,-0.620997,1.3871,-1.38711,1.3871,-0.766109,0,-1.38711,-0.620993,-1.38711,-1.3871,0,-0.766105,0.621708,-1.3871,1.38711,-1.3871zm-7.20015,0c0.766109,0,1.38711,0.620993,1.38711,1.3871,0,0.766105,-0.620997,1.3871,-1.38711,1.3871,-0.766109,0,-1.38711,-0.620993,-1.38711,-1.3871,0,-0.766105,0.620997,-1.3871,1.38711,-1.3871zm-27.2883,1.65456c1.57632,0,2.85388,1.27684,2.85388,2.85387,0,1.57702,-1.27756,2.85315,-2.85388,2.85315,-1.57632,0,-2.85388,-1.27684,-2.85388,-2.85244,0,-1.5756,1.27756,-2.85387,2.85388,-2.85387zm0.00284535,94.6029c-1.57632,0,-2.85388,-1.27755,-2.85388,-2.85387,0,-1.57631,1.27756,-2.85387,2.85388,-2.85387,1.57632,0,2.85388,1.27684,2.85388,2.85387,-0.000711336,1.5756,-1.27756,2.85387,-2.85388,2.85387zm12.8851,-93.4847c-0.766109,0,-1.38711,-0.620993,-1.38711,-1.3871,0,-0.766105,0.620997,-1.3871,1.38711,-1.3871,0.766109,0,1.38711,0.620993,1.38711,1.3871,0,0.766105,-0.621708,1.3871,-1.38711,1.3871zm5.81304,-1.38568c0,-0.766105,0.620997,-1.3871,1.38711,-1.3871,0.766109,0,1.38711,0.620993,1.38711,1.3871,0,0.766105,-0.620997,1.3871,-1.38711,1.3871,-0.766109,0,-1.38711,-0.621705,-1.38711,-1.3871zm17.9762,86.3714l-16.333,0,0,-4.81572,16.333,0,0,4.81572zm0,-72.817l-16.333,0,0,-4.81572,16.333,0,0,4.81572zm5.00994,-12.1688c-0.766109,0,-1.38711,-0.620993,-1.38711,-1.3871,0,-0.766105,0.620997,-1.3871,1.38711,-1.3871,0.766109,0,1.38711,0.620993,1.38711,1.3871,0,0.766105,-0.620997,1.3871,-1.38711,1.3871zm7.20086,0c-0.766109,0,-1.38711,-0.620993,-1.38711,-1.3871,0,-0.766105,0.620997,-1.3871,1.38711,-1.3871,0.766109,0,1.38711,0.620993,1.38711,1.3871,0,0.766105,-0.621708,1.3871,-1.38711,1.3871zm7.20015,0c-0.766109,0,-1.38711,-0.620993,-1.38711,-1.3871,0,-0.766105,0.620997,-1.3871,1.38711,-1.3871,0.766109,0,1.38711,0.620993,1.38711,1.3871,0,0.766105,-0.620997,1.3871,-1.38711,1.3871zm7.20015,0c-0.766109,0,-1.38711,-0.620993,-1.38711,-1.3871,0,-0.766105,0.620997,-1.3871,1.38711,-1.3871,0.766109,0,1.38711,0.620993,1.38711,1.3871,0,0.766105,-0.620997,1.3871,-1.38711,1.3871zm7.19944,0c-0.766109,0,-1.38711,-0.620993,-1.38711,-1.3871,0,-0.766105,0.620997,-1.3871,1.38711,-1.3871,0.766109,0,1.38711,0.620993,1.38711,1.3871,0,0.766105,-0.620997,1.3871,-1.38711,1.3871zm7.20015,0c-0.766109,0,-1.38711,-0.620993,-1.38711,-1.3871,0,-0.766105,0.620997,-1.3871,1.38711,-1.3871,0.766109,0,1.38711,0.620993,1.38711,1.3871,0,0.766105,-0.620997,1.3871,-1.38711,1.3871zm7.20086,0c-0.766109,0,-1.38711,-0.620993,-1.38711,-1.3871,0,-0.766105,0.620997,-1.3871,1.38711,-1.3871,0.766109,0,1.38711,0.620993,1.38711,1.3871,0,0.766105,-0.621708,1.3871,-1.38711,1.3871zm7.20015,0c-0.766109,0,-1.38711,-0.620993,-1.38711,-1.3871,0,-0.766105,0.620997,-1.3871,1.38711,-1.3871,0.766109,0,1.38711,0.620993,1.38711,1.3871,0,0.766105,-0.620997,1.3871,-1.38711,1.3871zm5.81233,-1.38568c0,-0.766105,0.620997,-1.3871,1.38711,-1.3871,0.766109,0,1.38711,0.620993,1.38711,1.3871,0,0.766105,-0.620997,1.3871,-1.38711,1.3871,-0.766109,0,-1.38711,-0.621705,-1.38711,-1.3871zm17.1105,86.3714l-16.3337,0,0,-4.81572,16.3337,0,0,4.81572zm0,-72.817l-16.3337,0,0,-4.81572,16.3337,0,0,4.81572zm-1.3238,-12.1688c-0.766109,0,-1.38711,-0.620993,-1.38711,-1.3871,0,-0.766105,0.620997,-1.3871,1.38711,-1.3871,0.766109,0,1.38711,0.620993,1.38711,1.3871,0,0.766105,-0.620997,1.3871,-1.38711,1.3871zm7.20086,0c-0.766109,0,-1.38711,-0.620993,-1.38711,-1.3871,0,-0.766105,0.620997,-1.3871,1.38711,-1.3871,0.766109,0,1.38711,0.620993,1.38711,1.3871,0,0.766105,-0.620997,1.3871,-1.38711,1.3871zm72.4553,84.9857l-16.3323,0,0,-4.81572,16.3323,0,0,4.81572zm0,-72.817l-16.3323,0,0,-4.81572,16.3323,0,0,4.81572zm20.3229,-13.292c1.57632,0,2.85388,1.27684,2.85388,2.85387,0,1.57702,-1.27685,2.85387,-2.85388,2.85387,-1.57703,0,-2.8553,-1.27684,-2.8553,-2.85387,0,-1.57702,1.27827,-2.85387,2.8553,-2.85387zm0,94.6086c-1.57632,0,-2.85388,-1.27684,-2.85388,-2.85387,0,-1.57489,1.27685,-2.85387,2.85388,-2.85387,1.57703,0,2.8553,1.27755,2.8553,2.85387,0,1.57631,-1.27898,2.85387,-2.8553,2.85387z" fill="#1F7A34"/>
     <g>
      <path d="M9.50061,6.5905c0,2.73721,2.22293,4.96083,4.96015,4.96083,2.7422,0,4.96086,-2.22434,4.96086,-4.96083,0,-2.74076,-2.21866,-4.96012,-4.96086,-4.96012,-2.73722,0,-4.96015,2.21865,-4.96015,4.96012zm2.10698,0c0,-1.57631,1.27756,-2.85387,2.85388,-2.85387,1.57632,0,2.85388,1.27684,2.85388,2.85387,0,1.57702,-1.27898,2.85244,-2.85459,2.85244,-1.5749,0,-2.85317,-1.27684,-2.85317,-2.85244z" fill="#9A916C"/>
     </g>
     <g>
      <g>
       <path d="M233.089,95.4857c0,-2.73721,-2.22293,-4.96083,-4.96086,-4.96083,-2.7422,0,-4.96086,2.22434,-4.96086,4.96083,0,2.74076,2.21866,4.96012,4.96086,4.96012,2.73865,0,4.96086,-2.21793,4.96086,-4.96012zm-2.10484,0c0,1.57631,-1.27898,2.85387,-2.8553,2.85387,-1.57632,0,-2.85388,-1.27684,-2.85388,-2.85387,0,-1.57489,1.27685,-2.85387,2.85388,-2.85387,1.57703,0,2.8553,1.27898,2.8553,2.85387z" fill="#9A916C"/>
      </g>
     </g>
     <g>
      <g>
       <path d="M9.50417,95.485c0,2.73721,2.22293,4.96083,4.96015,4.96083,2.7422,0,4.96086,-2.22434,4.96086,-4.96083,0,-2.74076,-2.21866,-4.96012,-4.96086,-4.96012,-2.73722,0,-4.96015,2.21936,-4.96015,4.96012zm2.10556,0c0,-1.57631,1.27756,-2.85387,2.85388,-2.85387,1.57632,0,2.85388,1.27684,2.85388,2.85387,0,1.57489,-1.27756,2.85387,-2.85388,2.85387,-1.5749,0,-2.85388,-1.27755,-2.85388,-2.85387z" fill="#9A916C"/>
      </g>
     </g>
     <path d="M225.483,65.2719c-0.734099,0,-1.33589,-0.601787,-1.33589,-1.3373l0,-25.8221c0,-0.734806,0.601791,-1.3373,1.33589,-1.3373l0.0569069,0,0,-20.0496,0,-0.697817,-0.699244,0,-2.04865,-2.04864,0,-0.712755,-0.712759,0,-201.549,0,-0.712759,0,0,0.712755,-2.04794,2.04793,-0.699244,0,0,0.697817,0,20.051,0.0569069,0c0.73481,0,1.33731,0.601787,1.33731,1.3373l0,25.8221c0,0.734806,-0.601791,1.3373,-1.33731,1.3373l-0.0569069,0,0,20.0489,0,0.697817,0.699244,0,2.04865,2.04864,0,0.712755,0.71347,0,201.547,0,0.712759,0,0,-0.712755,2.04865,-2.04864,0.699244,0,0,-0.697817,0,-20.0489,-0.0569069,0z" fill="#303030"/>
     <g>
      <path d="M216.583,71.3815c0,2.20584,-1.80537,4.0112,-4.01194,4.0112l-182.531,0c-2.20585,0,-4.01123,-1.80536,-4.01123,-4.0112l0,-40.7167c0,-2.20584,1.80537,-4.0112,4.01123,-4.0112l182.531,0c2.20728,0,4.01194,1.80536,4.01194,4.0112l0,40.7167z" fill="#87AD34"/>
      <g>
       <path d="M216.576,30.6463l0,40.7551c0,-0.00569066,0.00213401,-0.0120927,0.00213401,-0.019206l0,-40.7167c0,-0.00711332,-0.00213401,-0.012804,-0.00213401,-0.019206zm-186.535,-3.992c-2.20514,0,-4.01123,1.80607,-4.01123,4.0112l0,40.7167c0,2.20513,1.80608,4.0112,4.01123,4.0112l2.32607,0c-2.20585,0,-4.01123,-1.80607,-4.01123,-4.0112l0,-39.3787c0,-2.20584,1.80537,-4.0112,4.01123,-4.0112l183.166,0c-0.73481,-0.813764,-1.78688,-1.33802,-2.96414,-1.33802l-182.527,0z" fill="#22420D" fill-opacity="0.200000"/>
      </g>
     </g>
     <g>
      <path d="M218.279,18.6184c0,-0.734806,-0.601791,-1.33588,-1.33589,-1.33588l-191.273,0c-0.73481,0,-1.33589,0.601787,-1.33589,1.33588l0,0.73694c0,0.734806,0.601791,1.33588,1.33589,1.33588l191.271,0c0.734099,0,1.33589,-0.601787,1.33589,-1.33588l0,-0.73694,0.00142267,0z" fill="#1A1A1A"/>
      <path d="M217.61,19.812c0,-0.483706,-0.431781,-0.879918,-0.956747,-0.879918l-190.616,0c-0.526389,0,-0.956747,0.396212,-0.956747,0.879918,0,0.483706,0.43107,0.879918,0.956747,0.879918l190.616,0c0.524966,-0.000711332,0.956747,-0.396923,0.956747,-0.879918z" fill="#424242"/>
     </g>
     <g>
      <path d="M218.279,82.0558c0,-0.734095,-0.601791,-1.33588,-1.33589,-1.33588l-191.273,0c-0.73481,0,-1.33589,0.601787,-1.33589,1.33588l0,0.737652c0,0.734095,0.601791,1.33588,1.33589,1.33588l191.271,0c0.734099,0,1.33589,-0.601787,1.33589,-1.33588l0,-0.737652,0.00142267,0z" fill="#1A1A1A"/>
      <path d="M217.61,83.2508c0,-0.483706,-0.431781,-0.879918,-0.956747,-0.879918l-190.616,0c-0.526389,0,-0.956747,0.396212,-0.956747,0.879918,0,0.482995,0.43107,0.879207,0.956747,0.879207l190.616,0c0.524966,0,0.956747,-0.396212,0.956747,-0.879207z" fill="#424242"/>
     </g>
     <g>
      <line fill="none" fill-opacity="0.200000" stroke="#F2F2F2" stroke-linecap="round" stroke-opacity="0.200000" stroke-width="0.235843" x1="17.8567" x2="19.9701" y1="16.1729" y2="14.0602"/>
      <line fill="none" fill-opacity="0.200000" stroke="#F2F2F2" stroke-linecap="round" stroke-opacity="0.200000" stroke-width="0.235843" x1="19.9921" x2="17.8787" y1="87.9769" y2="85.8628"/>
     </g>
     <g>
      <line fill="none" fill-opacity="0.200000" stroke="#F2F2F2" stroke-linecap="round" stroke-opacity="0.200000" stroke-width="0.235843" x1="224.743" x2="222.629" y1="16.1729" y2="14.0602"/>
      <line fill="none" fill-opacity="0.200000" stroke="#F2F2F2" stroke-linecap="round" stroke-opacity="0.200000" stroke-width="0.235843" x1="222.608" x2="224.721" y1="87.9769" y2="85.8628"/>
     </g>
     <path d="M216.577,71.3815c0,2.20513,-1.80537,4.0112,-4.0098,4.0112l-182.527,0c-2.20514,0,-4.01123,-1.80607,-4.01123,-4.0112l0,-40.7167c0,-2.20513,1.80608,-4.0112,4.01123,-4.0112l182.527,0c2.20514,0,4.0098,1.80607,4.0098,4.0112l0,40.7167z" fill="none" fill-opacity="0.400000" stroke="#1A1A1A" stroke-opacity="0.400000" stroke-width="1.41505"/>
     <g>
      <path d="M223.168,6.5848c0,2.73721,2.22293,4.96083,4.96086,4.96083,2.7422,0,4.96086,-2.22434,4.96086,-4.96083,0,-2.74076,-2.21866,-4.96012,-4.96086,-4.96012,-2.73865,0,-4.96086,2.21865,-4.96086,4.96012zm2.10484,0c0,-1.57631,1.27898,-2.85387,2.8553,-2.85387,1.57632,0,2.85388,1.27684,2.85388,2.85387,0,1.57702,-1.27685,2.85387,-2.85388,2.85387,-1.57703,0,-2.8553,-1.27755,-2.8553,-2.85387z" fill="#9A916C"/>
     </g>
     <g>
      <path d="M24.9402,0l0,4.75028c0,1.33019,1.07767,2.40999,2.41001,2.40999,1.3302,0,2.41001,-1.0798,2.41001,-2.40999l0,-4.75028,-4.82002,0zm2.41001,4.85413c-0.766109,0,-1.38711,-0.620993,-1.38711,-1.3871,0,-0.766105,0.620997,-1.3871,1.38711,-1.3871,0.766109,0,1.38711,0.620993,1.38711,1.3871,0,0.766105,-0.621708,1.3871,-1.38711,1.3871z" fill="#9A916C"/>
     </g>
     <g>
      <path d="M32.1396,0l0,4.75028c0,1.33019,1.07767,2.40999,2.41001,2.40999,1.3302,0,2.41001,-1.0798,2.41001,-2.40999l0,-4.75028,-4.82002,0zm2.41001,4.85413c-0.766109,0,-1.38711,-0.620993,-1.38711,-1.3871,0,-0.766105,0.620997,-1.3871,1.38711,-1.3871,0.766109,0,1.38711,0.620993,1.38711,1.3871,0,0.766105,-0.620997,1.3871,-1.38711,1.3871z" fill="#9A916C"/>
     </g>
     <g>
      <path d="M39.3397,0l0,4.75028c0,1.33019,1.07767,2.40999,2.41001,2.40999,1.3302,0,2.41001,-1.0798,2.41001,-2.40999l0,-4.75028,-4.82002,0zm2.41001,4.85413c-0.766109,0,-1.38711,-0.620993,-1.38711,-1.3871,0,-0.766105,0.620997,-1.3871,1.38711,-1.3871,0.766109,0,1.38711,0.620993,1.38711,1.3871,0,0.766105,-0.620997,1.3871,-1.38711,1.3871z" fill="#9A916C"/>
     </g>
     <g>
      <path d="M46.5399,0l0,4.75028c0,1.33019,1.07767,2.40999,2.41001,2.40999,1.3302,0,2.41001,-1.0798,2.41001,-2.40999l0,-4.75028,-4.82002,0zm2.41001,4.85413c-0.766109,0,-1.38711,-0.620993,-1.38711,-1.3871,0,-0.766105,0.620997,-1.3871,1.38711,-1.3871,0.766109,0,1.38711,0.620993,1.38711,1.3871,0,0.766105,-0.620997,1.3871,-1.38711,1.3871z" fill="#9A916C"/>
     </g>
     <g>
      <path d="M53.7393,0l0,4.75028c0,1.33019,1.07767,2.40999,2.41001,2.40999,1.3302,0,2.41001,-1.0798,2.41001,-2.40999l0,-4.75028,-4.82002,0zm2.41001,4.85413c-0.766109,0,-1.38711,-0.620993,-1.38711,-1.3871,0,-0.766105,0.620997,-1.3871,1.38711,-1.3871,0.766109,0,1.38711,0.620993,1.38711,1.3871,0,0.766105,-0.620997,1.3871,-1.38711,1.3871z" fill="#9A916C"/>
     </g>
     <g>
      <path d="M60.9402,0l0,4.75028c0,1.33019,1.07767,2.40999,2.41001,2.40999,1.3302,0,2.41001,-1.0798,2.41001,-2.40999l0,-4.75028,-4.82002,0zm2.41001,4.85413c-0.766109,0,-1.38711,-0.620993,-1.38711,-1.3871,0,-0.766105,0.620997,-1.3871,1.38711,-1.3871,0.766109,0,1.38711,0.620993,1.38711,1.3871,0,0.766105,-0.621708,1.3871,-1.38711,1.3871z" fill="#9A916C"/>
     </g>
     <g>
      <path d="M68.1396,0l0,4.75028c0,1.33019,1.07767,2.40999,2.41001,2.40999,1.3302,0,2.41001,-1.0798,2.41001,-2.40999l0,-4.75028,-4.82002,0zm2.41001,4.85413c-0.766109,0,-1.38711,-0.620993,-1.38711,-1.3871,0,-0.766105,0.620997,-1.3871,1.38711,-1.3871,0.766109,0,1.38711,0.620993,1.38711,1.3871,0,0.766105,-0.620997,1.3871,-1.38711,1.3871z" fill="#9A916C"/>
     </g>
     <g>
      <path d="M75.3398,0l0,4.75028c0,1.33019,1.07767,2.40999,2.41001,2.40999,1.3302,0,2.41001,-1.0798,2.41001,-2.40999l0,-4.75028,-4.82002,0zm2.41001,4.85413c-0.766109,0,-1.38711,-0.620993,-1.38711,-1.3871,0,-0.766105,0.620997,-1.3871,1.38711,-1.3871,0.766109,0,1.38711,0.620993,1.38711,1.3871,0,0.766105,-0.620997,1.3871,-1.38711,1.3871z" fill="#9A916C"/>
     </g>
     <g>
      <path d="M82.5392,0l0,4.75028c0,1.33019,1.07767,2.40999,2.41001,2.40999,1.3302,0,2.41001,-1.0798,2.41001,-2.40999l0,-4.75028,-4.82002,0zm2.41001,4.85413c-0.766109,0,-1.38711,-0.620993,-1.38711,-1.3871,0,-0.766105,0.620997,-1.3871,1.38711,-1.3871,0.766109,0,1.38711,0.620993,1.38711,1.3871,0,0.766105,-0.620997,1.3871,-1.38711,1.3871z" fill="#9A916C"/>
     </g>
     <g>
      <path d="M89.7394,0l0,4.75028c0,1.33019,1.07767,2.40999,2.41001,2.40999,1.3302,0,2.41001,-1.0798,2.41001,-2.40999l0,-4.75028,-4.82002,0zm2.41001,4.85413c-0.766109,0,-1.38711,-0.620993,-1.38711,-1.3871,0,-0.766105,0.620997,-1.3871,1.38711,-1.3871,0.766109,0,1.38711,0.620993,1.38711,1.3871,0,0.766105,-0.620997,1.3871,-1.38711,1.3871z" fill="#9A916C"/>
     </g>
     <g>
      <path d="M96.9402,0l0,4.75028c0,1.33019,1.07767,2.40999,2.41001,2.40999,1.3302,0,2.41001,-1.0798,2.41001,-2.40999l0,-4.75028,-4.82002,0zm2.41001,4.85413c-0.766109,0,-1.38711,-0.620993,-1.38711,-1.3871,0,-0.766105,0.620997,-1.3871,1.38711,-1.3871,0.766109,0,1.38711,0.620993,1.38711,1.3871,0,0.766105,-0.621708,1.3871,-1.38711,1.3871z" fill="#9A916C"/>
     </g>
     <g>
      <path d="M104.14,0l0,4.75028c0,1.33019,1.07767,2.40999,2.41001,2.40999,1.3302,0,2.41001,-1.0798,2.41001,-2.40999l0,-4.75028,-4.82002,0zm2.41001,4.85413c-0.766109,0,-1.38711,-0.620993,-1.38711,-1.3871,0,-0.766105,0.620997,-1.3871,1.38711,-1.3871,0.766109,0,1.38711,0.620993,1.38711,1.3871,0,0.766105,-0.620997,1.3871,-1.38711,1.3871z" fill="#9A916C"/>
     </g>
     <g>
      <path d="M111.339,0l0,4.75028c0,1.33019,1.07767,2.40999,2.41001,2.40999,1.3302,0,2.41001,-1.0798,2.41001,-2.40999l0,-4.75028,-4.82002,0zm2.41001,4.85413c-0.766109,0,-1.38711,-0.620993,-1.38711,-1.3871,0,-0.766105,0.620997,-1.3871,1.38711,-1.3871,0.766109,0,1.38711,0.620993,1.38711,1.3871,0,0.766105,-0.620997,1.3871,-1.38711,1.3871z" fill="#9A916C"/>
     </g>
     <g>
      <path d="M118.539,0l0,4.75028c0,1.33019,1.07767,2.40999,2.41001,2.40999,1.3302,0,2.41072,-1.0798,2.41072,-2.40999l0,-4.75028,-4.82073,0zm2.41001,4.85413c-0.766109,0,-1.38711,-0.620993,-1.38711,-1.3871,0,-0.766105,0.620997,-1.3871,1.38711,-1.3871,0.766109,0,1.38711,0.620993,1.38711,1.3871,0,0.766105,-0.620997,1.3871,-1.38711,1.3871z" fill="#9A916C"/>
     </g>
     <g>
      <path d="M125.739,0l0,4.75028c0,1.33019,1.07767,2.40999,2.41001,2.40999,1.3302,0,2.41001,-1.0798,2.41001,-2.40999l0,-4.75028,-4.82002,0zm2.41001,4.85413c-0.766109,0,-1.38711,-0.620993,-1.38711,-1.3871,0,-0.766105,0.620997,-1.3871,1.38711,-1.3871,0.766109,0,1.38711,0.620993,1.38711,1.3871,0,0.766105,-0.620997,1.3871,-1.38711,1.3871z" fill="#9A916C"/>
     </g>
     <g>
      <path d="M132.94,0l0,4.75028c0,1.33019,1.07767,2.40999,2.41001,2.40999,1.3302,0,2.41001,-1.0798,2.41001,-2.40999l0,-4.75028,-4.82002,0zm2.41001,4.85413c-0.766109,0,-1.38711,-0.620993,-1.38711,-1.3871,0,-0.766105,0.620997,-1.3871,1.38711,-1.3871,0.766109,0,1.38711,0.620993,1.38711,1.3871,0,0.766105,-0.620997,1.3871,-1.38711,1.3871z" fill="#9A916C"/>
     </g>
     <g>
      <polygon fill="#1A1A1A" fill-opacity="0.101961" points="35.7098,67.8917,45.7368,67.8917,45.7368,51.3696,35.7098,51.3696"/>
      <polygon fill="#1A1A1A" fill-opacity="0.101961" points="46.4538,67.8917,56.4808,67.8917,56.4808,51.3696,46.4538,51.3696"/>
      <polygon fill="#1A1A1A" fill-opacity="0.101961" points="57.1978,67.8917,67.2248,67.8917,67.2248,51.3696,57.1978,51.3696"/>
      <polygon fill="#1A1A1A" fill-opacity="0.101961" points="67.9419,67.8917,77.9703,67.8917,77.9703,51.3696,67.9419,51.3696"/>
      <polygon fill="#1A1A1A" fill-opacity="0.101961" points="78.688,67.8917,88.715,67.8917,88.715,51.3696,78.688,51.3696"/>
      <polygon fill="#1A1A1A" fill-opacity="0.101961" points="89.4321,67.8917,99.4591,67.8917,99.4591,51.3696,89.4321,51.3696"/>
      <polygon fill="#1A1A1A" fill-opacity="0.101961" points="100.176,67.8917,110.203,67.8917,110.203,51.3696,100.176,51.3696"/>
      <polygon fill="#1A1A1A" fill-opacity="0.101961" points="110.92,67.8917,120.947,67.8917,120.947,51.3696,110.92,51.3696"/>
      <polygon fill="#1A1A1A" fill-opacity="0.101961" points="121.664,67.8917,131.693,67.8917,131.693,51.3696,121.664,51.3696"/>
      <polygon fill="#1A1A1A" fill-opacity="0.101961" points="132.409,67.8917,142.436,67.8917,142.436,51.3696,132.409,51.3696"/>
      <polygon fill="#1A1A1A" fill-opacity="0.101961" points="143.154,67.8917,153.181,67.8917,153.181,51.3696,143.154,51.3696"/>
      <polygon fill="#1A1A1A" fill-opacity="0.101961" points="153.897,67.8917,163.924,67.8917,163.924,51.3696,153.897,51.3696"/>
      <polygon fill="#1A1A1A" fill-opacity="0.101961" points="164.642,67.8917,174.669,67.8917,174.669,51.3696,164.642,51.3696"/>
      <polygon fill="#1A1A1A" fill-opacity="0.101961" points="175.385,67.8917,185.412,67.8917,185.412,51.3696,175.385,51.3696"/>
      <polygon fill="#1A1A1A" fill-opacity="0.101961" points="186.13,67.8917,196.157,67.8917,196.157,51.3696,186.13,51.3696"/>
      <polygon fill="#1A1A1A" fill-opacity="0.101961" points="196.874,67.8917,206.901,67.8917,206.901,51.3696,196.874,51.3696"/>
      <polygon fill="#1A1A1A" fill-opacity="0.101961" points="35.7098,50.676,45.7368,50.676,45.7368,34.1539,35.7098,34.1539"/>
      <polygon fill="#1A1A1A" fill-opacity="0.101961" points="46.4538,50.676,56.4808,50.676,56.4808,34.1539,46.4538,34.1539"/>
      <polygon fill="#1A1A1A" fill-opacity="0.101961" points="57.1978,50.676,67.2248,50.676,67.2248,34.1539,57.1978,34.1539"/>
      <polygon fill="#1A1A1A" fill-opacity="0.101961" points="67.9419,50.676,77.9703,50.676,77.9703,34.1539,67.9419,34.1539"/>
      <polygon fill="#1A1A1A" fill-opacity="0.101961" points="78.688,50.676,88.715,50.676,88.715,34.1539,78.688,34.1539"/>
      <polygon fill="#1A1A1A" fill-opacity="0.101961" points="89.4321,50.676,99.4591,50.676,99.4591,34.1539,89.4321,34.1539"/>
      <polygon fill="#1A1A1A" fill-opacity="0.101961" points="100.176,50.676,110.203,50.676,110.203,34.1539,100.176,34.1539"/>
      <polygon fill="#1A1A1A" fill-opacity="0.101961" points="110.92,50.676,120.947,50.676,120.947,34.1539,110.92,34.1539"/>
      <polygon fill="#1A1A1A" fill-opacity="0.101961" points="121.664,50.676,131.693,50.676,131.693,34.1539,121.664,34.1539"/>
      <polygon fill="#1A1A1A" fill-opacity="0.101961" points="132.409,50.676,142.436,50.676,142.436,34.1539,132.409,34.1539"/>
      <polygon fill="#1A1A1A" fill-opacity="0.101961" points="143.154,50.676,153.181,50.676,153.181,34.1539,143.154,34.1539"/>
      <polygon fill="#1A1A1A" fill-opacity="0.101961" points="153.897,50.676,163.924,50.676,163.924,34.1539,153.897,34.1539"/>
      <polygon fill="#1A1A1A" fill-opacity="0.101961" points="164.642,50.676,174.669,50.676,174.669,34.1539,164.642,34.1539"/>
      <polygon fill="#1A1A1A" fill-opacity="0.101961" points="175.385,50.676,185.412,50.676,185.412,34.1539,175.385,34.1539"/>
      <polygon fill="#1A1A1A" fill-opacity="0.101961" points="186.13,50.676,196.157,50.676,196.157,34.1539,186.13,34.1539"/>
      <polygon fill="#1A1A1A" fill-opacity="0.101961" points="196.874,50.676,206.901,50.676,206.901,34.1539,196.874,34.1539"/>
     </g>
     <g>
      <path d="M17.3737,65.2228l0,20.7965,0.268174,0,0,-20.852c-0.0832264,0.0348553,-0.177834,0.0369893,-0.268174,0.0547726z" fill="#606060"/>
      <path d="M17.6419,36.8812l0,-20.8548,-0.268174,0,0,20.8001c0.0903397,0.0177833,0.184947,0.0199173,0.268174,0.0547726z" fill="#606060"/>
     </g>
     <rect fill="#606060" height="0.26675" width="202.969" x="19.82" y="13.5722"/>
     <rect fill="#212121" height="0.303739" width="202.969" x="19.82" y="13.2699"/>
     <g>
      <path d="M17.1276,36.7759c0.086783,0,0.164319,0.034144,0.246834,0.0497933l0,-20.8001,-0.303029,0,0,20.7496,0.0561956,0z" fill="#212121"/>
      <path d="M17.1276,65.2719l-0.0561956,0,0,20.7481,0.303029,0,0,-20.7979c-0.0832264,0.0163606,-0.160051,0.0505046,-0.246834,0.0505046z" fill="#212121"/>
     </g>
     <rect fill="#212121" height="0.303028" width="202.969" x="19.82" y="88.4798"/>
     <rect fill="#606060" height="0.26675" width="202.969" x="19.82" y="88.2145"/>
     <g>
      <path d="M225.483,65.2719c-0.088917,0,-0.166453,-0.034144,-0.249679,-0.0512159l0,20.7986,0.305163,0,0,-20.7481,-0.0547729,0z" fill="#212121"/>
      <path d="M225.483,36.7759l0.0547729,0,0,-20.7496,-0.305163,0,0,20.8008c0.0839377,-0.0163606,0.160762,-0.0512159,0.249679,-0.0512159z" fill="#212121"/>
     </g>
     <g>
      <path d="M224.969,65.168l0,20.852,0.26604,0,0,-20.7979c-0.088917,-0.017072,-0.184236,-0.019206,-0.26604,-0.0540613z" fill="#606060"/>
      <path d="M225.235,36.8271l0,-20.8001,-0.26604,0,0,20.8541c0.0818037,-0.0348553,0.177123,-0.0369893,0.26604,-0.0540613z" fill="#606060"/>
     </g>
     <g>
      <circle cx="27.3502" cy="3.58014" fill="#606062" r="1.40418"/>
      <circle cx="34.5496" cy="3.58014" fill="#606062" r="1.40418"/>
      <circle cx="41.7498" cy="3.58014" fill="#606062" r="1.40418"/>
      <circle cx="48.9499" cy="3.58014" fill="#606062" r="1.40418"/>
      <circle cx="56.15" cy="3.58014" fill="#606062" r="1.40418"/>
      <circle cx="63.3502" cy="3.58014" fill="#606062" r="1.40418"/>
      <circle cx="70.5496" cy="3.58014" fill="#606062" r="1.40418"/>
      <circle cx="77.7498" cy="3.58014" fill="#606062" r="1.40418"/>
      <circle cx="84.9499" cy="3.58014" fill="#606062" r="1.40418"/>
      <circle cx="92.1501" cy="3.58014" fill="#606062" r="1.40418"/>
      <circle cx="99.3502" cy="3.58014" fill="#606062" r="1.40418"/>
      <circle cx="106.55" cy="3.58014" fill="#606062" r="1.40418"/>
      <circle cx="113.75" cy="3.58014" fill="#606062" r="1.40418"/>
      <circle cx="120.95" cy="3.58014" fill="#606062" r="1.40418"/>
      <circle cx="128.15" cy="3.58014" fill="#606062" r="1.40418"/>
      <circle cx="135.35" cy="3.58014" fill="#606062" r="1.40418"/>
     </g>
    </g>
    <g id="labels">
     <text fill="#FEFEFE" font-family="Droid Sans" font-size="3.49995" font-weight="normal" x="8.95644" y="15.6024">GND</text>
     <text fill="#FEFEFE" font-family="Droid Sans" font-size="3.49995" font-weight="normal" x="9.17126" y="22.8523">VCC</text>
     <g transform="matrix(1, 0, 0, 1, -100.638, -21.2677)">
      <g>
       <text fill="#FEFEFE" font-family="Droid Sans" font-size="3.49995" font-weight="normal" x="109.63" y="51.3696">SDA</text>
      </g>
     </g>
     <g transform="matrix(1, 0, 0, 1, -101.114, -14.1204)">
      <g>
       <text fill="#FEFEFE" font-family="Droid Sans" font-size="3.49995" font-weight="normal" x="110.288" y="51.3696">SCL</text>
      </g>
     </g>
    </g>
   </g>
  </g>
 </g>
 <g partID="855130670">
  <g transform="translate(215.645,274.761)">
   <g transform="matrix(0,-1,1,0,0,0)">
    <g gorn="0.1.1" id="breadboard">
     <g gorn="0.1.1.0" id="icon">
      <rect fill="#1F7A34" height="36" width="36"/>
      <g>
       <rect fill="#D2D3D5" height="3.93363" width="30.8971" x="2.55082" y="12.1008"/>
       <g>
        <rect fill="#E6E7E8" height="7.21144" width="25.9937" x="5.00251" y="7.94987"/>
        <rect fill="#96989A" height="3.26891" width="25.9937" x="5.00251" y="14.0772"/>
       </g>
       <rect fill="#727376" height="13.9602" width="22.3931" x="6.80346" y="6.76787"/>
       <rect fill="#A9ABAE" height="0.425772" width="20.976" x="7.51139" y="20.3023"/>
       <g>
        <rect fill="#1F7A34" height="2.3373" width="18.1226" x="8.92088" y="18.5141"/>
        <rect fill="#A9ABAE" height="0.425772" width="18.1226" x="8.92088" y="18.3006"/>
       </g>
       <g>
        <rect fill="#C8C5E2" height="13.5243" width="0.992621" x="24.5906" y="4.04547"/>
        <rect fill="#FEFEFE" height="0.499488" width="0.992621" x="24.5906" y="17.2622"/>
       </g>
       <g>
        <rect fill="#C8C5E2" height="13.5243" width="0.992621" x="10.4168" y="4.04547"/>
        <rect fill="#FEFEFE" height="0.499488" width="0.992621" x="10.4168" y="17.2622"/>
       </g>
       <g>
        <rect fill="#C8C5E2" height="13.5243" width="0.992621" x="13.9602" y="4.04547"/>
        <rect fill="#FEFEFE" height="0.499488" width="0.992621" x="13.9602" y="17.2622"/>
       </g>
       <g>
        <rect fill="#C8C5E2" height="13.5243" width="0.992621" x="17.5037" y="4.04547"/>
        <rect fill="#FEFEFE" height="0.499488" width="0.992621" x="17.5037" y="17.2622"/>
       </g>
       <g>
        <rect fill="#C8C5E2" height="13.5243" width="0.992621" x="21.0471" y="4.04547"/>
        <rect fill="#FEFEFE" height="0.499488" width="0.992621" x="21.0471" y="17.2622"/>
       </g>
       <rect fill="#FEFEFE" height="10.2554" width="22.3931" x="6.80346" y="5.78034"/>
       <rect fill="#A9ABAE" height="0.513469" width="20.976" x="7.51139" y="15.9468"/>
       <g>
        <rect fill="#FEFEFE" height="3.93363" width="0.531262" x="2.55082" y="12.1008"/>
        <rect fill="#1F7A34" height="1.18708" width="0.874422" x="3.08208" y="13.443"/>
        <rect fill="#96989A" height="0.467714" width="0.531262" x="2.55082" y="15.568"/>
       </g>
       <g>
        <rect fill="#FEFEFE" height="3.93363" width="0.531262" x="32.9179" y="12.1008"/>
        <rect fill="#1F7A34" height="1.18708" width="0.874422" x="32.0422" y="13.443"/>
        <rect fill="#96989A" height="0.467714" width="0.531262" x="32.9179" y="15.568"/>
       </g>
       <g>
        <rect fill="#A9ABAE" height="4.78136" width="0.709197" x="6.80346" y="15.9468"/>
        <rect fill="#606062" height="2.7313" width="1.79968" x="8.01342" y="9.73176"/>
        <rect fill="#D2D3D5" height="0.425772" width="1.79968" x="8.01342" y="9.73176"/>
        <rect fill="#606062" height="1.30909" width="0.709197" x="6.80346" y="17.6829"/>
       </g>
       <g>
        <rect fill="#A9ABAE" height="4.78136" width="0.709197" x="28.4873" y="15.9468"/>
        <rect fill="#606062" height="2.7313" width="1.79968" x="26.2327" y="9.73176"/>
        <rect fill="#D2D3D5" height="0.425772" width="1.79968" x="26.2327" y="9.73176"/>
        <rect fill="#606062" height="1.30909" width="0.709197" x="28.4873" y="17.6829"/>
       </g>
      </g>
      <text fill="white" font-family="OCRA" font-size="2.99958" font-weight="500" x="7.94733" y="3.17741">RFID Reader</text>
      <g transform="matrix(2.64845e-14, -1, 1, 2.64845e-14, -12.9619, 62.4491)">
       <g>
        <g>
         <g>
          <g>
           <g>
            <text fill="white" font-family="OCRA" font-size="3.23968" font-weight="500" x="31.7741" y="17.5342">CST</text>
           </g>
          </g>
         </g>
        </g>
       </g>
      </g>
      <g transform="matrix(2.64845e-14, -1, 1, 2.64845e-14, -5.76192, 62.4491)">
       <g>
        <g>
         <g>
          <g>
           <g>
            <text fill="white" font-family="OCRA" font-size="3.23968" font-weight="500" x="31.7741" y="17.5342">Gnd</text>
           </g>
          </g>
         </g>
        </g>
       </g>
      </g>
      <g transform="matrix(2.64845e-14, -1, 1, 2.64845e-14, 1.43771, 62.4491)">
       <g>
        <g>
         <g>
          <g>
           <g>
            <text fill="white" font-family="OCRA" font-size="3.23968" font-weight="500" x="31.7741" y="17.5342">TX/D0</text>
           </g>
          </g>
         </g>
        </g>
       </g>
      </g>
      <g transform="matrix(2.64845e-14, -1, 1, 2.64845e-14, 8.63764, 62.4491)">
       <g>
        <g>
         <g>
          <g>
           <g>
            <text fill="white" font-family="OCRA" font-size="3.23968" font-weight="500" x="31.7741" y="17.5342">RX/D1</text>
           </g>
          </g>
         </g>
        </g>
       </g>
      </g>
      <g transform="matrix(2.64845e-14, -1, 1, 2.64845e-14, 15.8399, 60.1285)">
       <g>
        <g>
         <g>
          <g>
           <g>
            <text fill="white" font-family="OCRA" font-size="3.23968" font-weight="500" x="29.4571" y="17.5342">Vin</text>
           </g>
          </g>
         </g>
        </g>
       </g>
      </g>
     </g>
     <g gorn="0.1.1.1" id="connector0pin">
      <rect fill="#8D8C8C" height="2.29663" width="2.29917" x="2.45041" y="31.2517"/>
      <rect fill="#8C8663" height="1.18199" width="1.18454" x="3.01091" y="31.8084"/>
      <polygon fill="#B8AF82" points="2.45041,33.5483,3.01091,32.9891,3.01091,31.7524,2.45041,31.2517"/>
      <polygon fill="#80795B" points="4.1929,31.8109,3.01981,31.8109,2.45041,31.2517,4.74959,31.2517"/>
      <polygon fill="#5E5B43" points="4.1929,32.9891,4.1929,31.8109,4.74959,31.2517,4.74959,33.5483"/>
      <polygon fill="#9A916C" points="2.45041,33.5483,3.01726,32.9891,4.1929,32.9891,4.74959,33.5483"/>
     </g>
     <g gorn="0.1.1.2" id="connector1pin">
      <rect fill="#8D8C8C" height="2.29663" width="2.29917" x="9.65041" y="31.2517"/>
      <rect fill="#8C8663" height="1.18199" width="1.18454" x="10.2109" y="31.8084"/>
      <polygon fill="#B8AF82" points="9.65041,33.5483,10.2109,32.9891,10.2109,31.7524,9.65041,31.2517"/>
      <polygon fill="#80795B" points="11.3929,31.8109,10.2198,31.8109,9.65041,31.2517,11.9496,31.2517"/>
      <polygon fill="#5E5B43" points="11.3929,32.9891,11.3929,31.8109,11.9496,31.2517,11.9496,33.5483"/>
      <polygon fill="#9A916C" points="9.65041,33.5483,10.2173,32.9891,11.3929,32.9891,11.9496,33.5483"/>
     </g>
     <g gorn="0.1.1.3" id="connector2pin">
      <rect fill="#8D8C8C" height="2.29663" width="2.29917" x="16.8504" y="31.2517"/>
      <rect fill="#8C8663" height="1.18199" width="1.18454" x="17.4109" y="31.8084"/>
      <polygon fill="#B8AF82" points="16.8504,33.5483,17.4109,32.9891,17.4109,31.7524,16.8504,31.2517"/>
      <polygon fill="#80795B" points="18.5929,31.8109,17.4198,31.8109,16.8504,31.2517,19.1496,31.2517"/>
      <polygon fill="#5E5B43" points="18.5929,32.9891,18.5929,31.8109,19.1496,31.2517,19.1496,33.5483"/>
      <polygon fill="#9A916C" points="16.8504,33.5483,17.4173,32.9891,18.5929,32.9891,19.1496,33.5483"/>
     </g>
     <g gorn="0.1.1.4" id="connector3pin">
      <rect fill="#8D8C8C" height="2.29663" width="2.29917" x="24.0504" y="31.2517"/>
      <rect fill="#8C8663" height="1.18199" width="1.18454" x="24.6109" y="31.8084"/>
      <polygon fill="#B8AF82" points="24.0504,33.5483,24.6109,32.9891,24.6109,31.7524,24.0504,31.2517"/>
      <polygon fill="#80795B" points="25.7929,31.8109,24.6198,31.8109,24.0504,31.2517,26.3496,31.2517"/>
      <polygon fill="#5E5B43" points="25.7929,32.9891,25.7929,31.8109,26.3496,31.2517,26.3496,33.5483"/>
      <polygon fill="#9A916C" points="24.0504,33.5483,24.6173,32.9891,25.7929,32.9891,26.3496,33.5483"/>
     </g>
     <g gorn="0.1.1.5" id="connector4pin">
      <rect fill="#8D8C8C" height="2.29663" width="2.29917" x="31.2504" y="31.2504"/>
      <rect fill="#8C8663" height="1.18199" width="1.18454" x="31.8109" y="31.8084"/>
      <polygon fill="#B8AF82" points="31.2504,33.547,31.8109,32.9891,31.8109,31.7524,31.2504,31.2517"/>
      <polygon fill="#80795B" points="32.9929,31.8096,31.8185,31.8096,31.2504,31.2517,33.5496,31.2517"/>
      <polygon fill="#5E5B43" points="32.9929,32.9891,32.9929,31.8096,33.5496,31.2517,33.5496,33.547"/>
      <polygon fill="#9A916C" points="31.2504,33.547,31.8173,32.9891,32.9929,32.9891,33.5496,33.547"/>
     </g>
    </g>
   </g>
  </g>
 </g>
 <g partID="110900">
  <g transform="translate(316.445,173.961)">
   <g transform="matrix(0,-1,1,0,0,0)">
    <g gorn="0.3" id="breadboard">
     <g gorn="0.3.0" id="icon">
      <path d="M0,36l43.2,0L43.2,0L0,0L0,36M38.161,32.4c0,-0.795,0.645,-1.44,1.439,-1.44s1.439,0.646,1.439,1.44S40.395,33.84,39.6,33.84S38.161,33.195,38.161,32.4zM30.959,32.4c0,-0.795,0.645,-1.44,1.44,-1.44s1.44,0.646,1.44,1.44s-0.645,1.439,-1.44,1.439S30.959,33.195,30.959,32.4zM23.76,32.4c-0.001,-0.795,0.644,-1.441,1.438,-1.441c0.796,0,1.44,0.644,1.441,1.439c0,0,0,0.001,0,0.002c0,0.795,-0.646,1.439,-1.44,1.439S23.76,33.195,23.76,32.4zM16.56,32.4c0,-0.795,0.644,-1.441,1.439,-1.441c0.795,0,1.44,0.644,1.441,1.439c0,0,0,0.001,0,0.002c0,0.795,-0.645,1.439,-1.44,1.439S16.56,33.195,16.56,32.4zM9.36,32.4c0,-0.795,0.645,-1.44,1.44,-1.44c0.795,0,1.44,0.646,1.44,1.44s-0.645,1.439,-1.44,1.439C10.005,33.84,9.36,33.195,9.36,32.4zM2.16,32.4c0,-0.795,0.644,-1.44,1.439,-1.441c0.795,0,1.44,0.645,1.44,1.439c0,0.001,0,0.002,0,0.002c0,0.795,-0.645,1.439,-1.44,1.439S2.16,33.195,2.16,32.4zM2.16,3.6c0,-0.795,0.644,-1.44,1.439,-1.44c0.795,0,1.44,0.644,1.44,1.439c0,0,0,0,0,0.001c0,0.795,-0.645,1.44,-1.44,1.44S2.16,4.395,2.16,3.6zM9.36,3.6c0,-0.795,0.645,-1.44,1.44,-1.44c0.795,0,1.44,0.645,1.44,1.44c0,0.795,-0.645,1.44,-1.44,1.44C10.005,5.04,9.36,4.395,9.36,3.6zM16.56,3.6c0,-0.795,0.644,-1.44,1.439,-1.441c0.795,0,1.44,0.644,1.441,1.439c0,0.001,0,0.001,0,0.002c0,0.795,-0.645,1.44,-1.44,1.44S16.56,4.395,16.56,3.6zM23.76,3.6c-0.001,-0.795,0.644,-1.44,1.438,-1.441c0.796,0,1.44,0.644,1.441,1.439c0,0.001,0,0.001,0,0.002c0,0.795,-0.646,1.44,-1.44,1.44S23.76,4.395,23.76,3.6zM30.959,3.6c0,-0.795,0.645,-1.44,1.44,-1.44s1.44,0.645,1.44,1.44c0,0.795,-0.645,1.44,-1.44,1.44S30.959,4.395,30.959,3.6zM38.161,3.6c0,-0.795,0.645,-1.44,1.439,-1.44S41.04,2.805,41.04,3.6c0,0.795,-0.645,1.44,-1.439,1.44S38.161,4.395,38.161,3.6z" fill="#C62717"/>
      <g>
       <title>layer 21</title>
       <line fill="none" stroke="#FFFFFF" stroke-linecap="round" stroke-width="0.576" x1="14.4" x2="14.4" y1="36" y2="25.2"/>
       <line fill="none" stroke="#FFFFFF" stroke-linecap="round" stroke-width="0.576" x1="14.4" x2="14.4" y1="0" y2="10.8"/>
       <line fill="none" stroke="#FFFFFF" stroke-linecap="round" stroke-width="0.576" x1="28.799" x2="28.799" y1="0" y2="10.8"/>
       <line fill="none" stroke="#FFFFFF" stroke-linecap="round" stroke-width="0.576" x1="28.799" x2="28.799" y1="36" y2="25.2"/>
       <line fill="none" stroke="#FFFFFF" stroke-linecap="round" stroke-width="0.576" x1="0" x2="7.2" y1="18" y2="18"/>
       <line fill="none" stroke="#FFFFFF" stroke-linecap="round" stroke-width="0.864" x1="18" x2="25.2" y1="18" y2="18"/>
       <line fill="none" stroke="#FFFFFF" stroke-linecap="round" stroke-width="0.576" x1="36" x2="43.2" y1="18" y2="18"/>
       <g>
        <title>text:TXI</title>
        <g transform="matrix(1, 0, 0, 1, 0.8999, 29.1602)">
         <g>
          <g>
           <g>
            <text fill="#FFFFFF" font-family="OCRA" font-size="2.5056">LV1</text>
           </g>
          </g>
         </g>
        </g>
       </g>
       <g>
        <title>text:RXO</title>
        <g transform="matrix(1, 0, 0, 1, 8.1001, 29.1602)">
         <g>
          <g>
           <g>
            <text fill="#FFFFFF" font-family="OCRA" font-size="2.5056">LV2</text>
           </g>
          </g>
         </g>
        </g>
       </g>
       <g>
        <title>text:TXO</title>
        <g transform="matrix(1, 0, 0, 1, 0.8999, 8.9995)">
         <g>
          <g>
           <g>
            <text fill="#FFFFFF" font-family="OCRA" font-size="2.5056">HV1</text>
           </g>
          </g>
         </g>
        </g>
       </g>
       <g>
        <title>text:RXI</title>
        <g transform="matrix(1, 0, 0, 1, 8.1001, 8.9995)">
         <g>
          <g>
           <g>
            <text fill="#FFFFFF" font-family="OCRA" font-size="2.5056">HV2</text>
           </g>
          </g>
         </g>
        </g>
       </g>
       <g>
        <title>text:HV</title>
        <g transform="matrix(1, 0, 0, 1, 16.2002, 8.9995)">
         <g>
          <g>
           <g>
            <text fill="#FFFFFF" font-family="OCRA" font-size="2.5056">HV</text>
           </g>
          </g>
         </g>
        </g>
       </g>
       <g>
        <title>text:GND</title>
        <g transform="matrix(1, 0, 0, 1, 22.5005, 8.9995)">
         <g>
          <g>
           <g>
            <text fill="#FFFFFF" font-family="OCRA" font-size="2.5056">GND</text>
           </g>
          </g>
         </g>
        </g>
       </g>
       <g>
        <title>text:GND</title>
        <g transform="matrix(1, 0, 0, 1, 22.5005, 29.1602)">
         <g>
          <g>
           <g>
            <text fill="#FFFFFF" font-family="OCRA" font-size="2.5056">GND</text>
           </g>
          </g>
         </g>
        </g>
       </g>
       <g>
        <title>text:LV</title>
        <g transform="matrix(1, 0, 0, 1, 16.2002, 29.1602)">
         <g>
          <g>
           <g>
            <text fill="#FFFFFF" font-family="OCRA" font-size="2.5056">LV</text>
           </g>
          </g>
         </g>
        </g>
       </g>
       <g>
        <title>text:RXI</title>
        <g transform="matrix(1, 0, 0, 1, 29.6997, 8.9995)">
         <g>
          <g>
           <g>
            <text fill="#FFFFFF" font-family="OCRA" font-size="2.5056">HV3</text>
           </g>
          </g>
         </g>
        </g>
       </g>
       <g>
        <title>text:TXO</title>
        <g transform="matrix(1, 0, 0, 1, 36.8999, 9.1802)">
         <g>
          <g>
           <g>
            <text fill="#FFFFFF" font-family="OCRA" font-size="2.5056">HV4</text>
           </g>
          </g>
         </g>
        </g>
       </g>
       <g>
        <title>text:TXI</title>
        <g transform="matrix(1, 0, 0, 1, 36.8999, 29.1602)">
         <g>
          <g>
           <g>
            <text fill="#FFFFFF" font-family="OCRA" font-size="2.5056">LV4</text>
           </g>
          </g>
         </g>
        </g>
       </g>
       <g>
        <title>text:RXO</title>
        <g transform="matrix(1, 0, 0, 1, 29.6997, 29.1602)">
         <g>
          <g>
           <g>
            <text fill="#FFFFFF" font-family="OCRA" font-size="2.5056">LV3</text>
           </g>
          </g>
         </g>
        </g>
       </g>
       <g>
        <title>text:Chan1</title>
        <g transform="matrix(1, 0, 0, 1, 15.12, 22.68)">
         <g>
          <g>
           <g>
            <g>
             <g transform="rotate(-90)">
              <g>
               <g>
                <g>
                 <g>
                  <g transform="matrix(1, 0, 0, 1, -1.2741, -0.000366211)">
                   <g>
                    <g>
                     <g>
                      <text fill="#FFFFFF" font-family="OCRA" font-size="2.6726">Chan12</text>
                     </g>
                    </g>
                   </g>
                  </g>
                 </g>
                </g>
               </g>
              </g>
             </g>
            </g>
           </g>
          </g>
         </g>
        </g>
       </g>
       <g>
        <title>text:Chan2</title>
        <g transform="matrix(1, 0, 0, 1, 29.52, 22.68)">
         <g>
          <g>
           <g>
            <g>
             <g transform="rotate(-90)">
              <g>
               <g>
                <g>
                 <g>
                  <g transform="matrix(1, 0, 0, 1, -1.1325, 3.05176e-05)">
                   <g>
                    <g>
                     <g>
                      <text fill="#FFFFFF" font-family="OCRA" font-size="2.6726">Chan34</text>
                     </g>
                    </g>
                   </g>
                  </g>
                 </g>
                </g>
               </g>
              </g>
             </g>
            </g>
           </g>
          </g>
         </g>
        </g>
       </g>
       <g>
        <title>text:LV</title>
        <g transform="matrix(1, 0, 0, 1, 2.88, 25.56)">
         <g>
          <g>
           <g>
            <g>
             <g transform="rotate(-90)">
              <g>
               <g>
                <g>
                 <g>
                  <g transform="matrix(1, 0, 0, 1, -0.000549316, 0.000366211)">
                   <g>
                    <g>
                     <g>
                      <text fill="#FFFFFF" font-family="OCRA" font-size="2.6726">LV</text>
                     </g>
                    </g>
                   </g>
                  </g>
                 </g>
                </g>
               </g>
              </g>
             </g>
            </g>
           </g>
          </g>
         </g>
        </g>
       </g>
       <g>
        <title>text:HV</title>
        <g transform="matrix(1, 0, 0, 1, 2.88, 14.4)">
         <g>
          <g>
           <g>
            <g>
             <g transform="rotate(-90)">
              <g>
               <g>
                <g>
                 <g>
                  <g transform="matrix(1, 0, 0, 1, -0.000396729, 0.000366211)">
                   <g>
                    <g>
                     <g>
                      <text fill="#FFFFFF" font-family="OCRA" font-size="2.6726">HV</text>
                     </g>
                    </g>
                   </g>
                  </g>
                 </g>
                </g>
               </g>
              </g>
             </g>
            </g>
           </g>
          </g>
         </g>
        </g>
       </g>
       <g>
        <title>text:HV</title>
        <g transform="matrix(1, 0, 0, 1, 41.76, 14.4)">
         <g>
          <g>
           <g>
            <g>
             <g transform="rotate(-90)">
              <g>
               <g>
                <g>
                 <g>
                  <g transform="matrix(1, 0, 0, 1, -0.000396729, 0.000244141)">
                   <g>
                    <g>
                     <g>
                      <text fill="#FFFFFF" font-family="OCRA" font-size="2.6726">HV</text>
                     </g>
                    </g>
                   </g>
                  </g>
                 </g>
                </g>
               </g>
              </g>
             </g>
            </g>
           </g>
          </g>
         </g>
        </g>
       </g>
       <g>
        <title>text:LV</title>
        <g transform="matrix(1, 0, 0, 1, 41.76, 25.92)">
         <g>
          <g>
           <g>
            <g>
             <g transform="rotate(-90)">
              <g>
               <g>
                <g>
                 <g>
                  <g transform="matrix(1, 0, 0, 1, 9.15527e-05, 0.000244141)">
                   <g>
                    <g>
                     <g>
                      <text fill="#FFFFFF" font-family="OCRA" font-size="2.6726">LV</text>
                     </g>
                    </g>
                   </g>
                  </g>
                 </g>
                </g>
               </g>
              </g>
             </g>
            </g>
           </g>
          </g>
         </g>
        </g>
       </g>
       <g>
        <title>element:JP1</title>
        <g>
         <title>package:1X06</title>
        </g>
       </g>
       <g>
        <title>element:JP2</title>
        <g>
         <title>package:1X06</title>
        </g>
       </g>
       <g>
        <title>element:Q1</title>
        <g>
         <title>package:SOT23-3</title>
        </g>
       </g>
       <g>
        <title>element:Q2</title>
        <g>
         <title>package:SOT23-3</title>
        </g>
       </g>
       <g>
        <title>element:R1</title>
        <g>
         <title>package:C0402</title>
        </g>
       </g>
       <g>
        <title>element:R3</title>
        <g>
         <title>package:C0402</title>
        </g>
       </g>
       <g>
        <title>element:R4</title>
        <g>
         <title>package:C0402</title>
        </g>
       </g>
       <g>
        <title>element:R5</title>
        <g>
         <title>package:C0402</title>
        </g>
       </g>
       <g>
        <title>element:R6</title>
        <g>
         <title>package:C0402</title>
        </g>
       </g>
       <g>
        <title>element:R7</title>
        <g>
         <title>package:C0402</title>
        </g>
       </g>
       <g>
        <title>element:R8</title>
        <g>
         <title>package:C0402</title>
        </g>
       </g>
       <g>
        <title>element:R9</title>
        <g>
         <title>package:C0402</title>
        </g>
       </g>
       <g>
        <title>element:U$1</title>
        <g>
         <title>package:SFE-LOGO-FLAME</title>
        </g>
       </g>
      </g>
      <circle cx="39.6" cy="32.399" fill="none" gorn="0.3.0.2" id="connector0pin" r="1.872" stroke="#9A916C" stroke-width="0.864"/>
      <circle cx="32.4" cy="32.399" fill="none" gorn="0.3.0.3" id="connector1pin" r="1.872" stroke="#9A916C" stroke-width="0.864"/>
      <circle cx="25.2" cy="32.399" fill="none" gorn="0.3.0.4" id="connector2pin" r="1.872" stroke="#9A916C" stroke-width="0.864"/>
      <circle cx="18" cy="32.399" fill="none" gorn="0.3.0.5" id="connector3pin" r="1.872" stroke="#9A916C" stroke-width="0.864"/>
      <circle cx="10.8" cy="32.399" fill="none" gorn="0.3.0.6" id="connector4pin" r="1.872" stroke="#9A916C" stroke-width="0.864"/>
      <circle cx="3.6" cy="32.399" fill="none" gorn="0.3.0.7" id="connector5pin" r="1.872" stroke="#9A916C" stroke-width="0.864"/>
      <circle cx="3.6" cy="3.6" fill="none" gorn="0.3.0.8" id="connector6pin" r="1.872" stroke="#9A916C" stroke-width="0.864"/>
      <circle cx="10.8" cy="3.6" fill="none" gorn="0.3.0.9" id="connector7pin" r="1.872" stroke="#9A916C" stroke-width="0.864"/>
      <circle cx="18" cy="3.6" fill="none" gorn="0.3.0.10" id="connector8pin" r="1.872" stroke="#9A916C" stroke-width="0.864"/>
      <circle cx="25.2" cy="3.6" fill="none" gorn="0.3.0.11" id="connector9pin" r="1.872" stroke="#9A916C" stroke-width="0.864"/>
      <circle cx="32.4" cy="3.6" fill="none" gorn="0.3.0.12" id="connector10pin" r="1.872" stroke="#9A916C" stroke-width="0.864"/>
      <circle cx="39.6" cy="3.6" fill="none" gorn="0.3.0.13" id="connector11pin" r="1.872" stroke="#9A916C" stroke-width="0.864"/>
     </g>
    </g>
   </g>
  </g>
 </g>
 <g partID="112750">
  <g transform="translate(25.3542,185.755)">
   <g id="breadboard" >
    <ellipse cx="13.8898" cy="13.8898" fill="#803300" fill-opacity="1" id="path45" rx="12.1846" ry="12.1846" stroke="#000000" stroke-width="3.41034" />
    <path d="m9.73863,8.30257c0.623088,-0.621756,1.92931,-1.71122,4.09133,-1.68553,2.56795,0.0952416,3.45636,0.912312,4.29214,1.68553,1.05012,0.820454,1.69682,2.3962,1.9715,4.36874,-0.14616,1.44229,-0.617976,3.24677,-2.54426,4.74366l-1.47895,-1.87406c2.50452,-1.74756,2.11363,-6.3453,-2.18124,-6.85858,-4.25844,0.656467,-4.70736,4.86963,-2.15791,6.88915l-1.47902,1.84349c-1.20226,-1.34242,-2.52252,-2.61835,-2.33604,-4.74366,-0.070848,-1.78487,0.549072,-3.17857,1.82246,-4.36874z" fill="#ff9955" id="rect26017" stroke-width="1.88188" />
    <path d="m13.1754,12.942c0.212472,-0.141559,0.4338,-0.272232,0.728928,-0.312422,0.522648,0.0761328,0.553536,0.201521,0.729,0.312422,0.418248,0.31248,0.361008,0.464818,0.46152,0.666612l0,5.5768c-0.129168,0.255197,-0.25344,0.534686,-0.421776,0.593611,-0.223992,0.245765,-0.493776,0.354182,-0.7992,0.355464,-0.324,0.0375048,-0.533808,-0.15318,-0.737856,-0.355464,-0.189432,-0.0468288,-0.25884,-0.261655,-0.244584,-0.593611l0,-5.5768c0.022824,-0.207576,0.046728,-0.415368,0.283968,-0.666612z" fill="#ff9955" id="rect28196" stroke-width="0" />
    <circle cx="4.67716" cy="20.2365" fill="none" id="connector0pin" r="1.41732" stroke="none" stroke-width="0" />
    <circle cx="13.8898" cy="21.515" fill="none" id="connector1pin" r="1.41732" stroke="none" stroke-width="0" />
    <circle cx="23.1024" cy="20.2365" fill="none" id="connector2pin" r="1.41732" stroke="none" stroke-width="0" />
    <circle cx="23.1024" cy="7.48156" fill="none" id="connector3pin" r="1.41732" stroke="none" stroke-width="0" />
    <circle cx="13.8898" cy="6.20788" fill="none" id="connector4pin" r="1.41732" stroke="none" stroke-width="0" />
    <circle cx="4.67716" cy="7.48156" fill="none" id="connector5pin" r="1.41732" stroke="none" stroke-width="0" />
   </g>
  </g>
 </g>
 <g partID="855141500">
  <line stroke="#6c2710" stroke-linecap="round" stroke-width="3.2" x1="413.628" x2="248.045" y1="220.786" y2="271.161"/>
  <line stroke="#8c3b00" stroke-linecap="round" stroke-width="1.6" x1="413.628" x2="248.045" y1="220.786" y2="271.161"/>
 </g>
 <g partID="855141570">
  <line stroke="#000000" stroke-linecap="round" stroke-width="3.2" x1="413.628" x2="248.045" y1="256.786" y2="263.961"/>
  <line stroke="#404040" stroke-linecap="round" stroke-width="1.6" x1="413.628" x2="248.045" y1="256.786" y2="263.961"/>
 </g>
 <g partID="855150650">
  <line stroke="#dc00dc" stroke-linecap="round" stroke-width="3.2" x1="507.116" x2="507.116" y1="242.28" y2="357.746"/>
  <line stroke="#fa50e6" stroke-linecap="round" stroke-width="1.6" x1="507.116" x2="507.116" y1="242.28" y2="357.746"/>
 </g>
 <g partID="855150580">
  <line stroke="#dc00dc" stroke-linecap="round" stroke-width="3.2" x1="507.116" x2="384.924" y1="357.746" y2="357.746"/>
  <line stroke="#fa50e6" stroke-linecap="round" stroke-width="1.6" x1="507.116" x2="384.924" y1="357.746" y2="357.746"/>
 </g>
 <g partID="855150510">
  <line stroke="#dc00dc" stroke-linecap="round" stroke-width="3.2" x1="384.924" x2="384.924" y1="357.746" y2="307.299"/>
  <line stroke="#fa50e6" stroke-linecap="round" stroke-width="1.6" x1="384.924" x2="384.924" y1="357.746" y2="307.299"/>
 </g>
 <g partID="855150440">
  <line stroke="#dc00dc" stroke-linecap="round" stroke-width="3.2" x1="384.924" x2="255.445" y1="307.299" y2="307.299"/>
  <line stroke="#fa50e6" stroke-linecap="round" stroke-width="1.6" x1="384.924" x2="255.445" y1="307.299" y2="307.299"/>
 </g>
 <g partID="855150370">
  <line stroke="#dc00dc" stroke-linecap="round" stroke-width="3.2" x1="255.445" x2="255.445" y1="307.299" y2="256.853"/>
  <line stroke="#fa50e6" stroke-linecap="round" stroke-width="1.6" x1="255.445" x2="255.445" y1="307.299" y2="256.853"/>
 </g>
 <g partID="855149880">
  <line stroke="#dc00dc" stroke-linecap="round" stroke-width="3.2" x1="255.445" x2="248.045" y1="256.853" y2="256.761"/>
  <line stroke="#fa50e6" stroke-linecap="round" stroke-width="1.6" x1="255.445" x2="248.045" y1="256.853" y2="256.761"/>
 </g>
 <g partID="855141640">
  <line stroke="#dc00dc" stroke-linecap="round" stroke-width="3.2" x1="485.644" x2="507.115" y1="242.361" y2="242.28"/>
  <line stroke="#fa50e6" stroke-linecap="round" stroke-width="1.6" x1="485.644" x2="507.115" y1="242.361" y2="242.28"/>
 </g>
 <g partID="855150300">
  <line stroke="#7a3a73" stroke-linecap="round" stroke-width="3.2" x1="262.172" x2="248.045" y1="249.566" y2="249.561"/>
  <line stroke="#ab58a2" stroke-linecap="round" stroke-width="1.6" x1="262.172" x2="248.045" y1="249.566" y2="249.561"/>
 </g>
 <g partID="855150230">
  <line stroke="#7a3a73" stroke-linecap="round" stroke-width="3.2" x1="262.172" x2="262.172" y1="300.013" y2="249.567"/>
  <line stroke="#ab58a2" stroke-linecap="round" stroke-width="1.6" x1="262.172" x2="262.172" y1="300.013" y2="249.567"/>
 </g>
 <g partID="855150160">
  <line stroke="#7a3a73" stroke-linecap="round" stroke-width="3.2" x1="392.21" x2="262.171" y1="300.013" y2="300.013"/>
  <line stroke="#ab58a2" stroke-linecap="round" stroke-width="1.6" x1="392.21" x2="262.171" y1="300.013" y2="300.013"/>
 </g>
 <g partID="855150090">
  <line stroke="#7a3a73" stroke-linecap="round" stroke-width="3.2" x1="392.21" x2="392.21" y1="343.172" y2="300.012"/>
  <line stroke="#ab58a2" stroke-linecap="round" stroke-width="1.6" x1="392.21" x2="392.21" y1="343.172" y2="300.012"/>
 </g>
 <g partID="855150020">
  <line stroke="#7a3a73" stroke-linecap="round" stroke-width="3.2" x1="499.829" x2="392.21" y1="343.172" y2="343.172"/>
  <line stroke="#ab58a2" stroke-linecap="round" stroke-width="1.6" x1="499.829" x2="392.21" y1="343.172" y2="343.172"/>
 </g>
 <g partID="855149950">
  <line stroke="#7a3a73" stroke-linecap="round" stroke-width="3.2" x1="499.829" x2="499.829" y1="249.566" y2="343.172"/>
  <line stroke="#ab58a2" stroke-linecap="round" stroke-width="1.6" x1="499.829" x2="499.829" y1="249.566" y2="343.172"/>
 </g>
 <g partID="855141710">
  <line stroke="#7a3a73" stroke-linecap="round" stroke-width="3.2" x1="485.644" x2="499.829" y1="249.561" y2="249.567"/>
  <line stroke="#ab58a2" stroke-linecap="round" stroke-width="1.6" x1="485.644" x2="499.829" y1="249.561" y2="249.567"/>
 </g>
 <g partID="855156230">
  <line stroke="#ad6a38" stroke-linecap="round" stroke-width="3.2" x1="399.497" x2="298.605" y1="163.247" y2="242.28"/>
  <line stroke="#ef6100" stroke-linecap="round" stroke-width="1.6" x1="399.497" x2="298.605" y1="163.247" y2="242.28"/>
 </g>
 <g partID="855156080">
  <line stroke="#ad6a38" stroke-linecap="round" stroke-width="3.2" x1="298.605" x2="248.044" y1="242.28" y2="242.361"/>
  <line stroke="#ef6100" stroke-linecap="round" stroke-width="1.6" x1="298.605" x2="248.044" y1="242.28" y2="242.361"/>
 </g>
 <g partID="855141780">
  <line stroke="#ad6a38" stroke-linecap="round" stroke-width="3.2" x1="413.628" x2="399.497" y1="163.233" y2="163.247"/>
  <line stroke="#ef6100" stroke-linecap="round" stroke-width="1.6" x1="413.628" x2="399.497" y1="163.233" y2="163.247"/>
 </g>
 <g partID="855153200">
  <line stroke="#000000" stroke-linecap="round" stroke-width="3.2" x1="327.191" x2="48.4566" y1="227.706" y2="205.992"/>
  <line stroke="#404040" stroke-linecap="round" stroke-width="1.6" x1="327.191" x2="48.4566" y1="227.706" y2="205.992"/>
 </g>
 <g partID="855152810">
  <line stroke="#000000" stroke-linecap="round" stroke-width="3.2" x1="355.777" x2="327.191" y1="256.853" y2="227.706"/>
  <line stroke="#404040" stroke-linecap="round" stroke-width="1.6" x1="355.777" x2="327.191" y1="256.853" y2="227.706"/>
 </g>
 <g partID="855141850">
  <line stroke="#000000" stroke-linecap="round" stroke-width="3.2" x1="413.628" x2="355.777" y1="256.786" y2="256.853"/>
  <line stroke="#404040" stroke-linecap="round" stroke-width="1.6" x1="413.628" x2="355.777" y1="256.786" y2="256.853"/>
 </g>
 <g partID="855151640">
  <line stroke="#00a0c6" stroke-linecap="round" stroke-width="3.2" x1="31.8006" x2="30.0311" y1="264.14" y2="205.992"/>
  <line stroke="#33ffc5" stroke-linecap="round" stroke-width="1.6" x1="31.8006" x2="30.0311" y1="264.14" y2="205.992"/>
 </g>
 <g partID="855151250">
  <line stroke="#00a0c6" stroke-linecap="round" stroke-width="3.2" x1="168.566" x2="31.8014" y1="256.853" y2="264.139"/>
  <line stroke="#33ffc5" stroke-linecap="round" stroke-width="1.6" x1="168.566" x2="31.8014" y1="256.853" y2="264.139"/>
 </g>
 <g partID="855150860">
  <line stroke="#00a0c6" stroke-linecap="round" stroke-width="3.2" x1="168.566" x2="168.566" y1="206.407" y2="256.853"/>
  <line stroke="#33ffc5" stroke-linecap="round" stroke-width="1.6" x1="168.566" x2="168.566" y1="206.407" y2="256.853"/>
 </g>
 <g partID="855141960">
  <line stroke="#00a0c6" stroke-linecap="round" stroke-width="3.2" x1="413.628" x2="168.565" y1="206.386" y2="206.407"/>
  <line stroke="#33ffc5" stroke-linecap="round" stroke-width="1.6" x1="413.628" x2="168.565" y1="206.386" y2="206.407"/>
 </g>
 <g partID="855152420">
  <line stroke="#000000" stroke-linecap="round" stroke-width="3.2" x1="355.777" x2="355.829" y1="256.853" y2="278.209"/>
  <line stroke="#404040" stroke-linecap="round" stroke-width="1.6" x1="355.777" x2="355.829" y1="256.853" y2="278.209"/>
 </g>
 <g partID="855149490">
  <line stroke="#000000" stroke-linecap="round" stroke-width="3.2" x1="53.5854" x2="39.2436" y1="285.581" y2="207.27"/>
  <line stroke="#404040" stroke-linecap="round" stroke-width="1.6" x1="53.5854" x2="39.2436" y1="285.581" y2="207.27"/>
 </g>
 <g partID="855149100">
  <line stroke="#000000" stroke-linecap="round" stroke-width="3.2" x1="355.829" x2="53.5862" y1="278.21" y2="285.581"/>
  <line stroke="#404040" stroke-linecap="round" stroke-width="1.6" x1="355.829" x2="53.5862" y1="278.21" y2="285.581"/>
 </g>
 <g partID="855142110">
  <line stroke="#000000" stroke-linecap="round" stroke-width="3.2" x1="413.628" x2="355.777" y1="256.786" y2="256.853"/>
  <line stroke="#404040" stroke-linecap="round" stroke-width="1.6" x1="413.628" x2="355.777" y1="256.786" y2="256.853"/>
 </g>
 <g partID="855147150">
  <line stroke="#1b5bb3" stroke-linecap="round" stroke-width="3.2" x1="3.2118" x2="39.2438" y1="192.205" y2="191.963"/>
  <line stroke="#418dd9" stroke-linecap="round" stroke-width="1.6" x1="3.2118" x2="39.2438" y1="192.205" y2="191.963"/>
 </g>
 <g partID="855146760">
  <line stroke="#1b5bb3" stroke-linecap="round" stroke-width="3.2" x1="3.2118" x2="3.2118" y1="292.953" y2="192.206"/>
  <line stroke="#418dd9" stroke-linecap="round" stroke-width="1.6" x1="3.2118" x2="3.2118" y1="292.953" y2="192.206"/>
 </g>
 <g partID="855146370">
  <line stroke="#1b5bb3" stroke-linecap="round" stroke-width="3.2" x1="39.4566" x2="3.21204" y1="292.953" y2="292.953"/>
  <line stroke="#418dd9" stroke-linecap="round" stroke-width="1.6" x1="39.4566" x2="3.21204" y1="292.953" y2="292.953"/>
 </g>
 <g partID="855145980">
  <line stroke="#1b5bb3" stroke-linecap="round" stroke-width="3.2" x1="39.4566" x2="39.4566" y1="444.074" y2="292.953"/>
  <line stroke="#418dd9" stroke-linecap="round" stroke-width="1.6" x1="39.4566" x2="39.4566" y1="444.074" y2="292.953"/>
 </g>
 <g partID="855142440">
  <line stroke="#1b5bb3" stroke-linecap="round" stroke-width="3.2" x1="542.989" x2="39.4566" y1="444.064" y2="444.074"/>
  <line stroke="#418dd9" stroke-linecap="round" stroke-width="1.6" x1="542.989" x2="39.4566" y1="444.064" y2="444.074"/>
 </g>
 <g partID="855142370">
  <line stroke="#1b5bb3" stroke-linecap="round" stroke-width="3.2" x1="542.989" x2="542.989" y1="227.706" y2="444.064"/>
  <line stroke="#418dd9" stroke-linecap="round" stroke-width="1.6" x1="542.989" x2="542.989" y1="227.706" y2="444.064"/>
 </g>
 <g partID="855142300">
  <line stroke="#1b5bb3" stroke-linecap="round" stroke-width="3.2" x1="485.644" x2="542.988" y1="227.961" y2="227.706"/>
  <line stroke="#418dd9" stroke-linecap="round" stroke-width="1.6" x1="485.644" x2="542.988" y1="227.961" y2="227.706"/>
 </g>
 <g partID="855154760">
  <line stroke="#000000" stroke-linecap="round" stroke-width="3.2" x1="255.445" x2="320.045" y1="148.674" y2="148.761"/>
  <line stroke="#404040" stroke-linecap="round" stroke-width="1.6" x1="255.445" x2="320.045" y1="148.674" y2="148.761"/>
 </g>
 <g partID="855154370">
  <line stroke="#000000" stroke-linecap="round" stroke-width="3.2" x1="255.445" x2="255.445" y1="220.98" y2="148.674"/>
  <line stroke="#404040" stroke-linecap="round" stroke-width="1.6" x1="255.445" x2="255.445" y1="220.98" y2="148.674"/>
 </g>
 <g partID="855153980">
  <line stroke="#000000" stroke-linecap="round" stroke-width="3.2" x1="327.191" x2="255.445" y1="227.706" y2="220.98"/>
  <line stroke="#404040" stroke-linecap="round" stroke-width="1.6" x1="327.191" x2="255.445" y1="227.706" y2="220.98"/>
 </g>
 <g partID="855153590">
  <line stroke="#000000" stroke-linecap="round" stroke-width="3.2" x1="355.777" x2="327.191" y1="256.853" y2="227.706"/>
  <line stroke="#404040" stroke-linecap="round" stroke-width="1.6" x1="355.777" x2="327.191" y1="256.853" y2="227.706"/>
 </g>
 <g partID="855142510">
  <line stroke="#000000" stroke-linecap="round" stroke-width="3.2" x1="413.628" x2="355.777" y1="256.786" y2="256.853"/>
  <line stroke="#404040" stroke-linecap="round" stroke-width="1.6" x1="413.628" x2="355.777" y1="256.786" y2="256.853"/>
 </g>
 <g partID="855155540">
  <line stroke="#000000" stroke-linecap="round" stroke-width="3.2" x1="355.777" x2="355.777" y1="256.853" y2="148.674"/>
  <line stroke="#404040" stroke-linecap="round" stroke-width="1.6" x1="355.777" x2="355.777" y1="256.853" y2="148.674"/>
 </g>
 <g partID="855155150">
  <line stroke="#000000" stroke-linecap="round" stroke-width="3.2" x1="355.777" x2="348.844" y1="148.674" y2="148.761"/>
  <line stroke="#404040" stroke-linecap="round" stroke-width="1.6" x1="355.777" x2="348.844" y1="148.674" y2="148.761"/>
 </g>
 <g partID="855142740">
  <line stroke="#000000" stroke-linecap="round" stroke-width="3.2" x1="413.628" x2="355.777" y1="256.786" y2="256.853"/>
  <line stroke="#404040" stroke-linecap="round" stroke-width="1.6" x1="413.628" x2="355.777" y1="256.786" y2="256.853"/>
 </g>
 <g partID="855142970">
  <line stroke="#ad6a38" stroke-linecap="round" stroke-width="3.2" x1="413.628" x2="348.844" y1="163.233" y2="155.961"/>
  <line stroke="#ef6100" stroke-linecap="round" stroke-width="1.6" x1="413.628" x2="348.844" y1="163.233" y2="155.961"/>
 </g>
 <g partID="855143080">
  <line stroke="#8c0000" stroke-linecap="round" stroke-width="3.2" x1="413.628" x2="320.045" y1="292.786" y2="155.961"/>
  <line stroke="#cc1414" stroke-linecap="round" stroke-width="1.6" x1="413.628" x2="320.045" y1="292.786" y2="155.961"/>
 </g>
 <g partID="855143150">
  <line stroke="#846521" stroke-linecap="round" stroke-width="3.2" x1="485.644" x2="348.844" y1="177.592" y2="163.161"/>
  <line stroke="#a37911" stroke-linecap="round" stroke-width="1.6" x1="485.644" x2="348.844" y1="177.592" y2="163.161"/>
 </g>
 <g partID="855143220">
  <line stroke="#666666" stroke-linecap="round" stroke-width="3.2" x1="485.644" x2="348.844" y1="170.4" y2="141.561"/>
  <line stroke="#999999" stroke-linecap="round" stroke-width="1.6" x1="485.644" x2="348.844" y1="170.4" y2="141.561"/>
 </g>
 <g partID="855150790">
  <line stroke="#00a527" stroke-linecap="round" stroke-width="3.2" x1="370.35" x2="348.844" y1="134.101" y2="134.361"/>
  <line stroke="#25cc35" stroke-linecap="round" stroke-width="1.6" x1="370.35" x2="348.844" y1="134.101" y2="134.361"/>
 </g>
 <g partID="855150720">
  <line stroke="#00a527" stroke-linecap="round" stroke-width="3.2" x1="370.35" x2="370.35" y1="234.993" y2="134.101"/>
  <line stroke="#25cc35" stroke-linecap="round" stroke-width="1.6" x1="370.35" x2="370.35" y1="234.993" y2="134.101"/>
 </g>
 <g partID="855143290">
  <line stroke="#00a527" stroke-linecap="round" stroke-width="3.2" x1="413.628" x2="370.35" y1="235.186" y2="234.993"/>
  <line stroke="#25cc35" stroke-linecap="round" stroke-width="1.6" x1="413.628" x2="370.35" y1="235.186" y2="234.993"/>
 </g>
 <g partID="855145910">
  <line stroke="#846521" stroke-linecap="round" stroke-width="3.2" x1="96.5878" x2="96.5878" y1="170.09" y2="343.327"/>
  <line stroke="#a37911" stroke-linecap="round" stroke-width="1.6" x1="96.5878" x2="96.5878" y1="170.09" y2="343.327"/>
 </g>
 <g partID="855145840">
  <line stroke="#846521" stroke-linecap="round" stroke-width="3.2" x1="96.5878" x2="118.444" y1="343.326" y2="343.161"/>
  <line stroke="#a37911" stroke-linecap="round" stroke-width="1.6" x1="96.5878" x2="118.444" y1="343.326" y2="343.161"/>
 </g>
 <g partID="855143360">
  <line stroke="#846521" stroke-linecap="round" stroke-width="3.2" x1="320.045" x2="96.587" y1="163.161" y2="170.09"/>
  <line stroke="#a37911" stroke-linecap="round" stroke-width="1.6" x1="320.045" x2="96.587" y1="163.161" y2="170.09"/>
 </g>
 <g partID="855144570">
  <line stroke="#666666" stroke-linecap="round" stroke-width="3.2" x1="89.8302" x2="89.8302" y1="148.589" y2="350.084"/>
  <line stroke="#999999" stroke-linecap="round" stroke-width="1.6" x1="89.8302" x2="89.8302" y1="148.589" y2="350.084"/>
 </g>
 <g partID="855143500">
  <line stroke="#666666" stroke-linecap="round" stroke-width="3.2" x1="89.8302" x2="118.444" y1="350.084" y2="350.361"/>
  <line stroke="#999999" stroke-linecap="round" stroke-width="1.6" x1="89.8302" x2="118.444" y1="350.084" y2="350.361"/>
 </g>
 <g partID="855143430">
  <line stroke="#666666" stroke-linecap="round" stroke-width="3.2" x1="320.045" x2="89.8302" y1="141.561" y2="148.589"/>
  <line stroke="#999999" stroke-linecap="round" stroke-width="1.6" x1="320.045" x2="89.8302" y1="141.561" y2="148.589"/>
 </g>
 <g partID="855147690">
  <line stroke="#8c0000" stroke-linecap="round" stroke-width="3.2" x1="103.959" x2="118.444" y1="335.955" y2="335.961"/>
  <line stroke="#cc1414" stroke-linecap="round" stroke-width="1.6" x1="103.959" x2="118.444" y1="335.955" y2="335.961"/>
 </g>
 <g partID="855147540">
  <line stroke="#8c0000" stroke-linecap="round" stroke-width="3.2" x1="103.959" x2="103.959" y1="299.71" y2="335.955"/>
  <line stroke="#cc1414" stroke-linecap="round" stroke-width="1.6" x1="103.959" x2="103.959" y1="299.71" y2="335.955"/>
 </g>
 <g partID="855143570">
  <line stroke="#8c0000" stroke-linecap="round" stroke-width="3.2" x1="413.628" x2="103.959" y1="292.786" y2="299.71"/>
  <line stroke="#cc1414" stroke-linecap="round" stroke-width="1.6" x1="413.628" x2="103.959" y1="292.786" y2="299.71"/>
 </g>
 <g partID="855152030">
  <line stroke="#000000" stroke-linecap="round" stroke-width="3.2" x1="355.777" x2="355.829" y1="256.853" y2="278.209"/>
  <line stroke="#404040" stroke-linecap="round" stroke-width="1.6" x1="355.777" x2="355.829" y1="256.853" y2="278.209"/>
 </g>
 <g partID="855148230">
  <line stroke="#000000" stroke-linecap="round" stroke-width="3.2" x1="355.829" x2="118.703" y1="278.21" y2="285.581"/>
  <line stroke="#404040" stroke-linecap="round" stroke-width="1.6" x1="355.829" x2="118.703" y1="278.21" y2="285.581"/>
 </g>
 <g partID="855147840">
  <line stroke="#000000" stroke-linecap="round" stroke-width="3.2" x1="118.703" x2="118.444" y1="285.581" y2="328.761"/>
  <line stroke="#404040" stroke-linecap="round" stroke-width="1.6" x1="118.703" x2="118.444" y1="285.581" y2="328.761"/>
 </g>
 <g partID="855143680">
  <line stroke="#000000" stroke-linecap="round" stroke-width="3.2" x1="413.628" x2="355.777" y1="256.786" y2="256.853"/>
  <line stroke="#404040" stroke-linecap="round" stroke-width="1.6" x1="413.628" x2="355.777" y1="256.786" y2="256.853"/>
 </g>
 <g partID="855145470">
  <line stroke="#00a527" stroke-linecap="round" stroke-width="3.2" x1="572.067" x2="320.198" y1="112.959" y2="112.959"/>
  <line stroke="#25cc35" stroke-linecap="round" stroke-width="1.6" x1="572.067" x2="320.198" y1="112.959" y2="112.959"/>
 </g>
 <g partID="855145400">
  <line stroke="#00a527" stroke-linecap="round" stroke-width="3.2" x1="320.198" x2="320.045" y1="112.959" y2="134.361"/>
  <line stroke="#25cc35" stroke-linecap="round" stroke-width="1.6" x1="320.198" x2="320.045" y1="112.959" y2="134.361"/>
 </g>
 <g partID="855143950">
  <line stroke="#00a527" stroke-linecap="round" stroke-width="3.2" x1="572.044" x2="572.067" y1="127.161" y2="112.959"/>
  <line stroke="#25cc35" stroke-linecap="round" stroke-width="1.6" x1="572.044" x2="572.067" y1="127.161" y2="112.959"/>
 </g>
 <g partID="855148840">
  <line stroke="#000000" stroke-linecap="round" stroke-width="3.2" x1="586.196" x2="586.444" y1="91.4578" y2="127.161"/>
  <line stroke="#404040" stroke-linecap="round" stroke-width="1.6" x1="586.196" x2="586.444" y1="91.4578" y2="127.161"/>
 </g>
 <g partID="855148730">
  <line stroke="#000000" stroke-linecap="round" stroke-width="3.2" x1="521.693" x2="586.196" y1="91.4578" y2="91.4578"/>
  <line stroke="#404040" stroke-linecap="round" stroke-width="1.6" x1="521.693" x2="586.196" y1="91.4578" y2="91.4578"/>
 </g>
 <g partID="855148620">
  <line stroke="#000000" stroke-linecap="round" stroke-width="3.2" x1="521.693" x2="521.693" y1="163.333" y2="91.4578"/>
  <line stroke="#404040" stroke-linecap="round" stroke-width="1.6" x1="521.693" x2="521.693" y1="163.333" y2="91.4578"/>
 </g>
 <g partID="855144020">
  <line stroke="#000000" stroke-linecap="round" stroke-width="3.2" x1="485.644" x2="521.693" y1="163.207" y2="163.333"/>
  <line stroke="#404040" stroke-linecap="round" stroke-width="1.6" x1="485.644" x2="521.693" y1="163.207" y2="163.333"/>
 </g>
 <g partID="855145690">
  <line stroke="#8c0000" stroke-linecap="round" stroke-width="3.2" x1="413.574" x2="572.067" y1="321.826" y2="321.826"/>
  <line stroke="#cc1414" stroke-linecap="round" stroke-width="1.6" x1="413.574" x2="572.067" y1="321.826" y2="321.826"/>
 </g>
 <g partID="855145540">
  <line stroke="#8c0000" stroke-linecap="round" stroke-width="3.2" x1="572.067" x2="572.045" y1="321.826" y2="163.162"/>
  <line stroke="#cc1414" stroke-linecap="round" stroke-width="1.6" x1="572.067" x2="572.045" y1="321.826" y2="163.162"/>
 </g>
 <g partID="855144090">
  <line stroke="#8c0000" stroke-linecap="round" stroke-width="3.2" x1="413.628" x2="413.574" y1="292.786" y2="321.826"/>
  <line stroke="#cc1414" stroke-linecap="round" stroke-width="1.6" x1="413.628" x2="413.574" y1="292.786" y2="321.826"/>
 </g>
 <g partID="855145000">
  <line stroke="#000000" stroke-linecap="round" stroke-width="3.2" x1="485.449" x2="463.976" y1="91.4578" y2="92.3077"/>
  <line stroke="#404040" stroke-linecap="round" stroke-width="1.6" x1="485.449" x2="463.976" y1="91.4578" y2="92.3077"/>
 </g>
 <g partID="855144240">
  <line stroke="#000000" stroke-linecap="round" stroke-width="3.2" x1="485.644" x2="485.449" y1="163.207" y2="91.4577"/>
  <line stroke="#404040" stroke-linecap="round" stroke-width="1.6" x1="485.644" x2="485.449" y1="163.207" y2="91.4577"/>
 </g>
 <g partID="855155930">
  <line stroke="#ad6a38" stroke-linecap="round" stroke-width="3.2" x1="392.21" x2="392.21" y1="163.247" y2="127.375"/>
  <line stroke="#ef6100" stroke-linecap="round" stroke-width="1.6" x1="392.21" x2="392.21" y1="163.247" y2="127.375"/>
 </g>
 <g partID="855148950">
  <line stroke="#ad6a38" stroke-linecap="round" stroke-width="3.2" x1="392.21" x2="456.576" y1="127.375" y2="127.088"/>
  <line stroke="#ef6100" stroke-linecap="round" stroke-width="1.6" x1="392.21" x2="456.576" y1="127.375" y2="127.088"/>
 </g>
 <g partID="855145250">
  <line stroke="#ad6a38" stroke-linecap="round" stroke-width="3.2" x1="456.576" x2="456.776" y1="127.088" y2="92.3078"/>
  <line stroke="#ef6100" stroke-linecap="round" stroke-width="1.6" x1="456.576" x2="456.776" y1="127.088" y2="92.3078"/>
 </g>
 <g partID="855144350">
  <line stroke="#ad6a38" stroke-linecap="round" stroke-width="3.2" x1="413.628" x2="392.21" y1="163.233" y2="163.247"/>
  <line stroke="#ef6100" stroke-linecap="round" stroke-width="1.6" x1="413.628" x2="392.21" y1="163.233" y2="163.247"/>
 </g>
 <g partID="855145180">
  <line stroke="#d6d63a" stroke-linecap="round" stroke-width="3.2" x1="384.701" x2="384.701" y1="91.4578" y2="213.707"/>
  <line stroke="#fff800" stroke-linecap="round" stroke-width="1.6" x1="384.701" x2="384.701" y1="91.4578" y2="213.707"/>
 </g>
 <g partID="855145110">
  <line stroke="#d6d63a" stroke-linecap="round" stroke-width="3.2" x1="384.701" x2="413.628" y1="213.706" y2="213.586"/>
  <line stroke="#fff800" stroke-linecap="round" stroke-width="1.6" x1="384.701" x2="413.628" y1="213.706" y2="213.586"/>
 </g>
 <g partID="855144500">
  <line stroke="#d6d63a" stroke-linecap="round" stroke-width="3.2" x1="449.575" x2="384.701" y1="92.3078" y2="91.4578"/>
  <line stroke="#fff800" stroke-linecap="round" stroke-width="1.6" x1="449.575" x2="384.701" y1="92.3078" y2="91.4578"/>
 </g>
</svg>
